<svg width="25" height="15" viewBox="0 0 25 15" fill="none" xmlns="http://www.w3.org/2000/svg">
<path d="M13.938 1.33925C14.2135 1.06501 14.5802 0.913394 14.9607 0.916404C15.3412 0.919413 15.7057 1.07681 15.9772 1.35538C16.2488 1.63394 16.4062 2.0119 16.4163 2.40948C16.4264 2.80707 16.2883 3.19319 16.0311 3.48637L8.2257 13.6903C8.09148 13.8414 7.92949 13.9627 7.74941 14.0469C7.56934 14.1311 7.37487 14.1764 7.17764 14.1802C6.98041 14.184 6.78447 14.1462 6.60153 14.0691C6.4186 13.9919 6.25242 13.877 6.11295 13.7312L0.9367 8.32047C0.79255 8.18006 0.676931 8.01074 0.596741 7.82262C0.51655 7.63449 0.473431 7.43141 0.469955 7.22548C0.466479 7.01955 0.502718 6.81501 0.57651 6.62404C0.650302 6.43307 0.760135 6.2596 0.899457 6.11396C1.03878 5.96833 1.20473 5.85352 1.38743 5.77639C1.57012 5.69925 1.7658 5.66137 1.9628 5.665C2.1598 5.66864 2.35408 5.71371 2.53406 5.79753C2.71403 5.88136 2.87601 6.00221 3.01033 6.15289L7.10672 10.4328L13.8988 1.38423L13.938 1.33925ZM12.1382 11.8499L13.938 13.7312C14.0774 13.8767 14.2435 13.9914 14.4262 14.0683C14.609 14.1453 14.8047 14.183 15.0017 14.1792C15.1987 14.1753 15.3929 14.1301 15.5728 14.0461C15.7527 13.9621 15.9146 13.8411 16.0488 13.6903L23.8581 3.48637C23.9984 3.3416 24.1093 3.16875 24.1843 2.97817C24.2593 2.78758 24.2967 2.58316 24.2944 2.37711C24.2921 2.17105 24.2501 1.9676 24.1709 1.77889C24.0917 1.59018 23.977 1.42009 23.8335 1.27878C23.69 1.13746 23.5208 1.02782 23.3359 0.956396C23.1509 0.884974 22.9542 0.853236 22.7572 0.863079C22.5603 0.872922 22.3673 0.924144 22.1898 1.01369C22.0122 1.10323 21.8538 1.22925 21.7238 1.38423L14.9298 10.4328L13.981 9.43901L12.1382 11.8499Z" fill="#F9BF3B"/>
</svg>
