<svg width="101" height="19" viewBox="0 0 101 19" fill="none" xmlns="http://www.w3.org/2000/svg">
<path d="M10.3333 1.24503C10.4716 0.847823 11.0333 0.847824 11.1716 1.24503L12.8907 6.1833C12.9528 6.36167 13.121 6.48121 13.3099 6.48121H18.8044C19.2418 6.48121 19.4155 7.04693 19.0535 7.29237L14.6622 10.2701C14.4958 10.383 14.4261 10.5935 14.4922 10.7834L16.1817 15.6366C16.3222 16.0402 15.8671 16.3897 15.5135 16.1499L11.0015 13.0903C10.8511 12.9883 10.6537 12.9883 10.5033 13.0903L5.9914 16.1499C5.63772 16.3897 5.18266 16.0402 5.32315 15.6366L7.0127 10.7834C7.07879 10.5935 7.00902 10.383 6.84264 10.2701L2.45132 7.29237C2.08938 7.04693 2.2631 6.48121 2.70042 6.48121H8.19497C8.38385 6.48121 8.55203 6.36167 8.61412 6.1833L10.3333 1.24503Z" fill="#F9BF3B"/>
<path d="M30.3059 1.24503C30.4442 0.847823 31.006 0.847824 31.1442 1.24503L32.8634 6.1833C32.9255 6.36167 33.0937 6.48121 33.2825 6.48121H38.7771C39.2144 6.48121 39.3881 7.04693 39.0262 7.29237L34.6349 10.2701C34.4685 10.383 34.3987 10.5935 34.4648 10.7834L36.1544 15.6366C36.2949 16.0402 35.8398 16.3897 35.4861 16.1499L30.9742 13.0903C30.8238 12.9883 30.6264 12.9883 30.476 13.0903L25.9641 16.1499C25.6104 16.3897 25.1553 16.0402 25.2958 15.6366L26.9854 10.7834C27.0515 10.5935 26.9817 10.383 26.8153 10.2701L22.424 7.29237C22.062 7.04693 22.2358 6.48121 22.6731 6.48121H28.1676C28.3565 6.48121 28.5247 6.36167 28.5868 6.1833L30.3059 1.24503Z" fill="#F9BF3B"/>
<path d="M50.2769 1.24503C50.4152 0.847823 50.9769 0.847824 51.1152 1.24503L52.8343 6.1833C52.8964 6.36167 53.0646 6.48121 53.2535 6.48121H58.748C59.1854 6.48121 59.3591 7.04693 58.9971 7.29237L54.6058 10.2701C54.4394 10.383 54.3697 10.5935 54.4358 10.7834L56.1253 15.6366C56.2658 16.0402 55.8107 16.3897 55.4571 16.1499L50.9451 13.0903C50.7947 12.9883 50.5973 12.9883 50.4469 13.0903L45.935 16.1499C45.5813 16.3897 45.1263 16.0402 45.2668 15.6366L46.9563 10.7834C47.0224 10.5935 46.9526 10.383 46.7862 10.2701L42.3949 7.29237C42.033 7.04693 42.2067 6.48121 42.644 6.48121H48.1386C48.3274 6.48121 48.4956 6.36167 48.5577 6.1833L50.2769 1.24503Z" fill="#F9BF3B"/>
<path d="M70.2493 1.24503C70.3876 0.847823 70.9493 0.847824 71.0876 1.24503L72.8067 6.1833C72.8688 6.36167 73.037 6.48121 73.2259 6.48121H78.7205C79.1578 6.48121 79.3315 7.04693 78.9695 7.29237L74.5782 10.2701C74.4118 10.383 74.3421 10.5935 74.4082 10.7834L76.0977 15.6366C76.2382 16.0402 75.7832 16.3897 75.4295 16.1499L70.9175 13.0903C70.7671 12.9883 70.5698 12.9883 70.4194 13.0903L65.9074 16.1499C65.5537 16.3897 65.0987 16.0402 65.2392 15.6366L66.9287 10.7834C66.9948 10.5935 66.925 10.383 66.7587 10.2701L62.3673 7.29237C62.0054 7.04693 62.1791 6.48121 62.6164 6.48121H68.111C68.2999 6.48121 68.468 6.36167 68.5301 6.1833L70.2493 1.24503Z" fill="#F9BF3B"/>
<path d="M90.22 1.24503C90.3583 0.847823 90.92 0.847824 91.0583 1.24503L92.7775 6.1833C92.8395 6.36167 93.0077 6.48121 93.1966 6.48121H98.6912C99.1285 6.48121 99.3022 7.04693 98.9403 7.29237L94.5489 10.2701C94.3826 10.383 94.3128 10.5935 94.3789 10.7834L96.0684 15.6366C96.2089 16.0402 95.7539 16.3897 95.4002 16.1499L90.8882 13.0903C90.7378 12.9883 90.5405 12.9883 90.3901 13.0903L85.8781 16.1499C85.5244 16.3897 85.0694 16.0402 85.2099 15.6366L86.8994 10.7834C86.9655 10.5935 86.8957 10.383 86.7294 10.2701L82.338 7.29237C81.9761 7.04693 82.1498 6.48121 82.5871 6.48121H88.0817C88.2706 6.48121 88.4387 6.36167 88.5008 6.1833L90.22 1.24503Z" fill="#F9BF3B"/>
</svg>
