<svg width="221" height="39" viewBox="0 0 221 39" fill="none" xmlns="http://www.w3.org/2000/svg">
<path d="M67.9453 7.02078C67.0673 7.42378 66.4336 7.71735 65.9867 7.93003M67.9453 7.02078L68.425 8.06594L67.9444 7.02121C67.9447 7.02107 67.945 7.02093 67.9453 7.02078ZM67.9453 7.02078C68.8899 6.58622 69.6162 6.2578 70.1216 6.03696C70.373 5.92709 70.5787 5.8399 70.7329 5.77865C70.8085 5.74861 70.8845 5.71969 70.9533 5.69657C70.9869 5.68527 71.0326 5.67068 71.0832 5.65766L71.0861 5.65692C71.1114 5.65035 71.2092 5.62496 71.3358 5.61811C71.5409 5.60693 71.7229 5.64357 71.8318 5.67123C71.9478 5.70067 72.0944 5.74924 72.2392 5.82671C72.5425 5.98712 72.8049 6.26249 72.9528 6.56236C73.024 6.70495 73.0679 6.84769 73.0941 6.95444C73.1201 7.05993 73.15 7.21562 73.15 7.38502C73.15 7.50586 73.1291 7.6124 73.1279 7.6184L73.1278 7.61866C73.1216 7.65349 73.1143 7.68834 73.1077 7.71805C73.0944 7.77906 73.0766 7.85393 73.0562 7.93648C73.015 8.10345 72.9568 8.32866 72.8865 8.5938C72.7456 9.12542 72.5516 9.83361 72.3375 10.5908C71.9124 12.094 71.5004 13.5653 71.4193 13.8569L71.4151 13.8719C71.3303 14.1615 71.2171 14.5613 71.1646 14.758L71.1587 14.7791C71.1349 14.8621 71.0828 15.0473 71.0125 15.2971L71.0124 15.2974L71.0122 15.2982C70.915 15.6438 70.7858 16.1034 70.6578 16.5531C70.6069 16.7354 70.5595 16.9097 70.5172 17.069C70.5284 17.0766 70.5395 17.0843 70.5504 17.0923C70.7178 17.2143 70.9642 17.4279 71.1364 17.6167C71.3162 17.8065 71.5227 18.0855 71.6416 18.2908L70.6797 18.848L71.6416 18.2908C71.7612 18.4973 71.8974 18.8057 71.973 19.0227C71.9761 19.0314 71.979 19.0402 71.9818 19.049C72.0899 19.3848 72.132 19.7327 72.1515 20.0963L72.1525 20.1192C72.1675 20.5662 72.158 20.8343 72.0422 21.2741C71.9726 21.5385 71.8297 21.9221 71.6778 22.1879C71.5373 22.4392 71.2896 22.7674 71.0871 22.9772C70.9116 23.1589 70.6166 23.4229 70.3619 23.5757C70.1689 23.6943 69.8843 23.8334 69.6688 23.9105C69.4411 23.9931 69.0958 24.0723 68.8375 24.1034L68.8375 24.1034C68.685 24.1215 68.3974 24.1269 68.1026 24.1315C67.7413 24.1371 67.2308 24.1414 66.5709 24.1445C65.2503 24.1506 63.3192 24.1517 60.7618 24.1473H60.7616C57.254 24.1406 55.3411 24.1351 54.2783 24.1222C53.7506 24.1158 53.4128 24.1074 53.188 24.0948C52.9815 24.0832 52.778 24.065 52.5747 24.0001C52.3672 23.935 52.0755 23.8095 51.8776 23.7069C51.647 23.5875 51.3396 23.382 51.1394 23.2092L51.1394 23.2092C50.9084 23.0098 50.6397 22.6805 50.4796 22.4376L50.4692 22.4216C50.3114 22.1734 50.128 21.804 50.0351 21.5358L50.0291 21.5179C49.9158 21.173 49.8645 20.8423 49.8482 20.4312C49.8329 20.1169 49.8436 19.7429 49.9328 19.3618C49.9899 19.1177 50.111 18.7986 50.1989 18.6052L50.2046 18.5926L50.2047 18.5926C50.3099 18.3683 50.4916 18.0646 50.6471 17.8669L50.6499 17.8634L50.6499 17.8634C50.7962 17.6789 51.0202 17.4484 51.1828 17.3041L51.1978 17.2909C51.2791 17.2212 51.3795 17.1451 51.4868 17.0717C51.4802 17.0463 51.4733 17.02 51.4661 16.9928C51.465 16.9889 51.464 16.9849 51.463 16.981C51.4627 16.9799 51.4624 16.9787 51.462 16.9773L51.4437 16.911L51.369 16.6434C51.3037 16.4104 51.2092 16.0739 51.0924 15.6587C50.8589 14.8286 50.5368 13.6853 50.1824 12.4284L65.9867 7.93003M65.9867 7.93003C65.6777 7.4555 65.1999 6.73844 64.4658 5.63833C63.899 4.78782 63.37 4.00402 62.9742 3.42575C62.7766 3.13713 62.61 2.89645 62.4875 2.72321C62.4269 2.63747 62.373 2.56257 62.33 2.50474C62.3092 2.47681 62.2849 2.44472 62.2604 2.41442C62.2487 2.39985 62.2298 2.37694 62.207 2.35151C62.2068 2.35128 62.2064 2.35092 62.206 2.35042C62.1962 2.33932 62.1275 2.26177 62.0276 2.18788L62.0276 2.18788C61.7901 2.0122 61.4923 1.91121 61.2714 1.87509C61.1065 1.84811 60.8438 1.83192 60.5972 1.88516C60.3671 1.93364 60.1918 2.03914 60.1301 2.07697C60.029 2.13902 59.9163 2.22168 59.812 2.32294C59.7393 2.39353 59.6823 2.46979 59.6778 2.47577L59.6775 2.47613C59.6571 2.50278 59.6356 2.53201 59.6153 2.56002C59.574 2.61713 59.5215 2.69152 59.4612 2.77816C59.3397 2.95266 59.1746 3.1936 58.9787 3.48206C58.5862 4.05985 58.0632 4.8384 57.5032 5.67936L57.5021 5.68106C56.9459 6.5196 56.4391 7.28248 56.0709 7.83619C56.0513 7.86576 56.032 7.89474 56.0131 7.9231C55.5027 7.68942 54.8143 7.3732 54.0607 7.02583L54.0594 7.02522C53.2183 6.63877 52.4869 6.30881 51.9537 6.07446C51.6881 5.95774 51.4658 5.86214 51.3016 5.79451C51.2208 5.76128 51.1443 5.73075 51.0797 5.70699C51.0487 5.6956 51.0072 5.68088 50.963 5.66749C50.9414 5.66093 50.9065 5.6508 50.8644 5.64134L50.8629 5.64099C50.8367 5.63511 50.7332 5.61177 50.6016 5.61177C50.4179 5.61177 50.2538 5.65067 50.1703 5.67273C50.0687 5.69957 49.9468 5.73966 49.8278 5.79508C49.8134 5.80184 49.799 5.80889 49.7848 5.81624C49.6383 5.89211 49.5114 5.98726 49.4132 6.07493C49.3235 6.15506 49.1852 6.29327 49.0774 6.48313L50.0773 7.05105L49.0774 6.48313C48.9249 6.75156 48.85 7.08944 48.85 7.36258C48.85 7.45514 48.8616 7.53109 48.8643 7.54849C48.8644 7.54916 48.8645 7.54973 48.8646 7.55023C48.8692 7.58036 48.8742 7.60728 48.878 7.62646C48.8858 7.66571 48.8952 7.70791 48.9045 7.74781C48.9235 7.8294 48.9498 7.93539 48.9816 8.0595C49.0457 8.30949 49.1379 8.65677 49.2525 9.08014C49.4822 9.92808 49.8056 11.0949 50.1824 12.4283L65.9867 7.93003ZM56.8697 8.31267L56.8696 8.31265L56.8697 8.31267Z" fill="#DCF6FD" stroke="#37393D" stroke-width="2.3" stroke-linejoin="round"/>
<g filter="url(#filter0_d_32_62)">
<mask id="path-2-outside-1_32_62" maskUnits="userSpaceOnUse" x="0" y="6" width="219" height="31" fill="black">
<rect fill="white" y="6" width="219" height="31"/>
<path d="M20.37 19.92C20.37 21.26 20.06 22.48 19.44 23.58C18.82 24.66 17.9 25.52 16.68 26.16C15.48 26.8 14.02 27.12 12.3 27.12H10.66C10.1077 27.12 9.66 27.5677 9.66 28.12V32.87C9.66 33.4223 9.21229 33.87 8.66 33.87H4C3.44771 33.87 3 33.4223 3 32.87V13.63C3 13.0777 3.44772 12.63 4 12.63H12.3C14.9 12.63 16.89 13.29 18.27 14.61C19.67 15.93 20.37 17.7 20.37 19.92ZM11.55 21.87C12.93 21.87 13.62 21.22 13.62 19.92C13.62 18.62 12.93 17.97 11.55 17.97H10.66C10.1077 17.97 9.66 18.4177 9.66 18.97V20.87C9.66 21.4223 10.1077 21.87 10.66 21.87H11.55Z"/>
<path d="M25.8424 15.6C24.6824 15.6 23.7524 15.29 23.0524 14.67C22.3524 14.05 22.0024 13.27 22.0024 12.33C22.0024 11.37 22.3524 10.58 23.0524 9.96C23.7524 9.32 24.6824 9 25.8424 9C26.9824 9 27.9024 9.32 28.6024 9.96C29.3024 10.58 29.6524 11.37 29.6524 12.33C29.6524 13.27 29.3024 14.05 28.6024 14.67C27.9024 15.29 26.9824 15.6 25.8424 15.6ZM28.1424 16.95C28.6947 16.95 29.1424 17.3977 29.1424 17.95V32.87C29.1424 33.4223 28.6947 33.87 28.1424 33.87H23.4824C22.9301 33.87 22.4824 33.4223 22.4824 32.87V17.95C22.4824 17.3977 22.9301 16.95 23.4824 16.95H28.1424Z"/>
<path d="M43.5381 33.87C43.1914 33.87 42.8695 33.6905 42.6873 33.3956L40.6611 30.1158C40.1317 29.2588 38.8104 29.634 38.8104 30.6414V32.87C38.8104 33.4223 38.3627 33.87 37.8104 33.87H33.1504C32.5981 33.87 32.1504 33.4223 32.1504 32.87V12.67C32.1504 12.1177 32.5981 11.67 33.1504 11.67H37.8104C38.3627 11.67 38.8104 12.1177 38.8104 12.67V19.9837C38.8104 20.9726 40.0924 21.3615 40.6418 20.5393L42.7434 17.3944C42.929 17.1167 43.2409 16.95 43.5749 16.95H48.7916C49.6136 16.95 50.0845 17.8866 49.5944 18.5464L44.9019 24.8623C44.6348 25.2217 44.6393 25.7149 44.9128 26.0695L49.6878 32.2592C50.1949 32.9166 49.7263 33.87 48.896 33.87H43.5381Z"/>
<path d="M51.5238 25.41C51.5238 23.63 51.8238 22.09 52.4238 20.79C53.0438 19.47 53.8838 18.47 54.9438 17.79C56.0038 17.09 57.1938 16.74 58.5138 16.74C59.6138 16.74 60.5638 16.97 61.3638 17.43C61.5971 17.5583 61.8141 17.701 62.0151 17.8582C62.3957 18.1559 63.1938 17.8983 63.1938 17.4151C63.1938 17.1582 63.4021 16.95 63.659 16.95H68.8238C69.3761 16.95 69.8238 17.3977 69.8238 17.95V32.87C69.8238 33.4223 69.3761 33.87 68.8238 33.87H63.659C63.4021 33.87 63.1938 33.6618 63.1938 33.4049C63.1938 32.9217 62.3996 32.6668 62.0235 32.9701C61.8202 33.1341 61.6003 33.284 61.3638 33.42C60.5638 33.86 59.6138 34.08 58.5138 34.08C57.1938 34.08 56.0038 33.74 54.9438 33.06C53.8838 32.36 53.0438 31.36 52.4238 30.06C51.8238 28.74 51.5238 27.19 51.5238 25.41ZM63.1938 25.41C63.1938 24.51 62.9638 23.81 62.5038 23.31C62.0438 22.81 61.4538 22.56 60.7338 22.56C60.0138 22.56 59.4238 22.81 58.9638 23.31C58.5038 23.81 58.2738 24.51 58.2738 25.41C58.2738 26.31 58.5038 27.01 58.9638 27.51C59.4238 28.01 60.0138 28.26 60.7338 28.26C61.4538 28.26 62.0438 28.01 62.5038 27.51C62.9638 27.01 63.1938 26.31 63.1938 25.41Z"/>
<path d="M86.1877 33.87C85.8544 33.87 85.543 33.704 85.3573 33.4272L81.3048 27.3878C80.7544 26.5675 79.4745 26.9571 79.4745 27.945V32.87C79.4745 33.4223 79.0267 33.87 78.4745 33.87H73.8145C73.2622 33.87 72.8145 33.4223 72.8145 32.87V13.63C72.8145 13.0777 73.2622 12.63 73.8145 12.63H78.4745C79.0267 12.63 79.4745 13.0777 79.4745 13.63V18.3258C79.4745 19.31 80.7468 19.7022 81.3009 18.8888L85.2668 13.067C85.453 12.7936 85.7624 12.63 86.0932 12.63H91.1426C91.9576 12.63 92.4303 13.5527 91.9542 14.2142L86.1905 22.222C85.9415 22.568 85.9391 23.0337 86.1846 23.3822L92.464 32.294C92.9308 32.9565 92.457 33.87 91.6465 33.87H86.1877Z"/>
<path d="M94.5609 25.41C94.5609 23.63 94.8609 22.09 95.4609 20.79C96.0809 19.47 96.9209 18.47 97.9809 17.79C99.0409 17.09 100.231 16.74 101.551 16.74C102.651 16.74 103.601 16.97 104.401 17.43C104.634 17.5583 104.851 17.701 105.052 17.8582C105.433 18.1559 106.231 17.8983 106.231 17.4151C106.231 17.1582 106.439 16.95 106.696 16.95H111.861C112.413 16.95 112.861 17.3977 112.861 17.95V32.87C112.861 33.4223 112.413 33.87 111.861 33.87H106.696C106.439 33.87 106.231 33.6618 106.231 33.4049C106.231 32.9217 105.437 32.6668 105.061 32.9701C104.857 33.1341 104.637 33.284 104.401 33.42C103.601 33.86 102.651 34.08 101.551 34.08C100.231 34.08 99.0409 33.74 97.9809 33.06C96.9209 32.36 96.0809 31.36 95.4609 30.06C94.8609 28.74 94.5609 27.19 94.5609 25.41ZM106.231 25.41C106.231 24.51 106.001 23.81 105.541 23.31C105.081 22.81 104.491 22.56 103.771 22.56C103.051 22.56 102.461 22.81 102.001 23.31C101.541 23.81 101.311 24.51 101.311 25.41C101.311 26.31 101.541 27.01 102.001 27.51C102.461 28.01 103.051 28.26 103.771 28.26C104.491 28.26 105.081 28.01 105.541 27.51C106.001 27.01 106.231 26.31 106.231 25.41Z"/>
<path d="M123.382 34.08C121.782 34.08 120.362 33.82 119.122 33.3C117.902 32.78 116.932 32.06 116.212 31.14C115.721 30.513 115.374 29.8302 115.171 29.0918C115.016 28.5265 115.485 28.02 116.071 28.02H120.519C121.01 28.02 121.388 28.4099 121.676 28.8082C121.767 28.9334 121.875 29.0407 122.002 29.13C122.362 29.37 122.812 29.49 123.352 29.49C123.692 29.49 123.962 29.42 124.162 29.28C124.362 29.12 124.462 28.93 124.462 28.71C124.462 28.33 124.252 28.06 123.832 27.9C123.412 27.74 122.702 27.56 121.702 27.36C120.482 27.12 119.472 26.86 118.672 26.58C117.892 26.3 117.202 25.82 116.602 25.14C116.022 24.46 115.732 23.52 115.732 22.32C115.732 21.28 116.002 20.34 116.542 19.5C117.102 18.64 117.922 17.97 119.002 17.49C120.082 16.99 121.392 16.74 122.932 16.74C125.212 16.74 126.992 17.3 128.272 18.42C129.288 19.296 129.987 20.3801 130.368 21.6722C130.54 22.2566 130.066 22.8 129.457 22.8H125.508C125.037 22.8 124.664 22.4441 124.385 22.0655C124.296 21.945 124.191 21.8398 124.072 21.75C123.752 21.49 123.322 21.36 122.782 21.36C122.442 21.36 122.182 21.43 122.002 21.57C121.822 21.69 121.732 21.88 121.732 22.14C121.732 22.48 121.942 22.74 122.362 22.92C122.782 23.08 123.452 23.25 124.372 23.43C125.592 23.67 126.622 23.94 127.462 24.24C128.302 24.54 129.032 25.06 129.652 25.8C130.272 26.52 130.582 27.52 130.582 28.8C130.582 29.8 130.292 30.7 129.712 31.5C129.132 32.3 128.292 32.93 127.192 33.39C126.112 33.85 124.842 34.08 123.382 34.08Z"/>
<path d="M136.585 15.6C135.425 15.6 134.495 15.29 133.795 14.67C133.095 14.05 132.745 13.27 132.745 12.33C132.745 11.37 133.095 10.58 133.795 9.96C134.495 9.32 135.425 9 136.585 9C137.725 9 138.645 9.32 139.345 9.96C140.045 10.58 140.395 11.37 140.395 12.33C140.395 13.27 140.045 14.05 139.345 14.67C138.645 15.29 137.725 15.6 136.585 15.6ZM138.885 16.95C139.437 16.95 139.885 17.3977 139.885 17.95V32.87C139.885 33.4223 139.437 33.87 138.885 33.87H134.225C133.672 33.87 133.225 33.4223 133.225 32.87V17.95C133.225 17.3977 133.672 16.95 134.225 16.95H138.885Z"/>
<path d="M154.743 16.83C156.683 16.83 158.193 17.48 159.273 18.78C160.373 20.08 160.923 21.84 160.923 24.06V32.87C160.923 33.4223 160.475 33.87 159.923 33.87H155.293C154.74 33.87 154.293 33.4223 154.293 32.87V24.9C154.293 24.1 154.073 23.47 153.633 23.01C153.213 22.53 152.643 22.29 151.923 22.29C151.183 22.29 150.603 22.53 150.183 23.01C149.763 23.47 149.553 24.1 149.553 24.9V32.87C149.553 33.4223 149.105 33.87 148.553 33.87H143.893C143.34 33.87 142.893 33.4223 142.893 32.87V17.95C142.893 17.3977 143.34 16.95 143.893 16.95H148.963C149.288 16.95 149.553 17.2141 149.553 17.5399C149.553 18.1272 150.43 18.4325 150.893 18.0716C151.121 17.8942 151.364 17.7303 151.623 17.58C152.503 17.08 153.543 16.83 154.743 16.83Z"/>
<path d="M171.851 34.08C170.151 34.08 168.621 33.73 167.261 33.03C165.901 32.33 164.831 31.33 164.051 30.03C163.291 28.71 162.911 27.17 162.911 25.41C162.911 23.65 163.291 22.12 164.051 20.82C164.831 19.5 165.901 18.49 167.261 17.79C168.621 17.09 170.151 16.74 171.851 16.74C173.551 16.74 175.081 17.09 176.441 17.79C177.801 18.49 178.861 19.5 179.621 20.82C180.401 22.12 180.791 23.65 180.791 25.41C180.791 27.17 180.401 28.71 179.621 30.03C178.861 31.33 177.801 32.33 176.441 33.03C175.081 33.73 173.551 34.08 171.851 34.08ZM171.851 28.32C172.471 28.32 172.991 28.08 173.411 27.6C173.831 27.1 174.041 26.37 174.041 25.41C174.041 24.45 173.831 23.73 173.411 23.25C172.991 22.75 172.471 22.5 171.851 22.5C171.231 22.5 170.711 22.75 170.291 23.25C169.871 23.73 169.661 24.45 169.661 25.41C169.661 26.37 169.861 27.1 170.261 27.6C170.681 28.08 171.211 28.32 171.851 28.32Z"/>
<path d="M192.413 28.2C192.965 28.2 193.413 28.6477 193.413 29.2V32.87C193.413 33.4223 192.965 33.87 192.413 33.87H190.893C186.253 33.87 183.933 31.56 183.933 26.94V23.5C183.933 22.9477 183.485 22.5 182.933 22.5H182.833C182.281 22.5 181.833 22.0523 181.833 21.5V17.95C181.833 17.3977 182.281 16.95 182.833 16.95H182.933C183.485 16.95 183.933 16.5023 183.933 15.95V13.87C183.933 13.3177 184.381 12.87 184.933 12.87H189.593C190.145 12.87 190.593 13.3177 190.593 13.87V15.95C190.593 16.5023 191.041 16.95 191.593 16.95H192.353C192.905 16.95 193.353 17.3977 193.353 17.95V21.5C193.353 22.0523 192.905 22.5 192.353 22.5H191.593C191.041 22.5 190.593 22.9477 190.593 23.5V27.06C190.593 27.46 190.683 27.75 190.863 27.93C191.063 28.11 191.383 28.2 191.823 28.2H192.413Z"/>
<path d="M205.479 28.2C206.032 28.2 206.479 28.6477 206.479 29.2V32.87C206.479 33.4223 206.032 33.87 205.479 33.87H203.959C199.319 33.87 196.999 31.56 196.999 26.94V23.5C196.999 22.9477 196.552 22.5 195.999 22.5H195.899C195.347 22.5 194.899 22.0523 194.899 21.5V17.95C194.899 17.3977 195.347 16.95 195.899 16.95H195.999C196.552 16.95 196.999 16.5023 196.999 15.95V13.87C196.999 13.3177 197.447 12.87 197.999 12.87H202.659C203.212 12.87 203.659 13.3177 203.659 13.87V15.95C203.659 16.5023 204.107 16.95 204.659 16.95H205.419C205.972 16.95 206.419 17.3977 206.419 17.95V21.5C206.419 22.0523 205.972 22.5 205.419 22.5H204.659C204.107 22.5 203.659 22.9477 203.659 23.5V27.06C203.659 27.46 203.749 27.75 203.929 27.93C204.129 28.11 204.449 28.2 204.889 28.2H205.479Z"/>
<path d="M212.376 15.6C211.216 15.6 210.286 15.29 209.586 14.67C208.886 14.05 208.536 13.27 208.536 12.33C208.536 11.37 208.886 10.58 209.586 9.96C210.286 9.32 211.216 9 212.376 9C213.516 9 214.436 9.32 215.136 9.96C215.836 10.58 216.186 11.37 216.186 12.33C216.186 13.27 215.836 14.05 215.136 14.67C214.436 15.29 213.516 15.6 212.376 15.6ZM214.676 16.95C215.228 16.95 215.676 17.3977 215.676 17.95V32.87C215.676 33.4223 215.228 33.87 214.676 33.87H210.016C209.463 33.87 209.016 33.4223 209.016 32.87V17.95C209.016 17.3977 209.463 16.95 210.016 16.95H214.676Z"/>
</mask>
<path d="M20.37 19.92C20.37 21.26 20.06 22.48 19.44 23.58C18.82 24.66 17.9 25.52 16.68 26.16C15.48 26.8 14.02 27.12 12.3 27.12H10.66C10.1077 27.12 9.66 27.5677 9.66 28.12V32.87C9.66 33.4223 9.21229 33.87 8.66 33.87H4C3.44771 33.87 3 33.4223 3 32.87V13.63C3 13.0777 3.44772 12.63 4 12.63H12.3C14.9 12.63 16.89 13.29 18.27 14.61C19.67 15.93 20.37 17.7 20.37 19.92ZM11.55 21.87C12.93 21.87 13.62 21.22 13.62 19.92C13.62 18.62 12.93 17.97 11.55 17.97H10.66C10.1077 17.97 9.66 18.4177 9.66 18.97V20.87C9.66 21.4223 10.1077 21.87 10.66 21.87H11.55Z" fill="#F9BF3B"/>
<path d="M25.8424 15.6C24.6824 15.6 23.7524 15.29 23.0524 14.67C22.3524 14.05 22.0024 13.27 22.0024 12.33C22.0024 11.37 22.3524 10.58 23.0524 9.96C23.7524 9.32 24.6824 9 25.8424 9C26.9824 9 27.9024 9.32 28.6024 9.96C29.3024 10.58 29.6524 11.37 29.6524 12.33C29.6524 13.27 29.3024 14.05 28.6024 14.67C27.9024 15.29 26.9824 15.6 25.8424 15.6ZM28.1424 16.95C28.6947 16.95 29.1424 17.3977 29.1424 17.95V32.87C29.1424 33.4223 28.6947 33.87 28.1424 33.87H23.4824C22.9301 33.87 22.4824 33.4223 22.4824 32.87V17.95C22.4824 17.3977 22.9301 16.95 23.4824 16.95H28.1424Z" fill="#F9BF3B"/>
<path d="M43.5381 33.87C43.1914 33.87 42.8695 33.6905 42.6873 33.3956L40.6611 30.1158C40.1317 29.2588 38.8104 29.634 38.8104 30.6414V32.87C38.8104 33.4223 38.3627 33.87 37.8104 33.87H33.1504C32.5981 33.87 32.1504 33.4223 32.1504 32.87V12.67C32.1504 12.1177 32.5981 11.67 33.1504 11.67H37.8104C38.3627 11.67 38.8104 12.1177 38.8104 12.67V19.9837C38.8104 20.9726 40.0924 21.3615 40.6418 20.5393L42.7434 17.3944C42.929 17.1167 43.2409 16.95 43.5749 16.95H48.7916C49.6136 16.95 50.0845 17.8866 49.5944 18.5464L44.9019 24.8623C44.6348 25.2217 44.6393 25.7149 44.9128 26.0695L49.6878 32.2592C50.1949 32.9166 49.7263 33.87 48.896 33.87H43.5381Z" fill="#F9BF3B"/>
<path d="M51.5238 25.41C51.5238 23.63 51.8238 22.09 52.4238 20.79C53.0438 19.47 53.8838 18.47 54.9438 17.79C56.0038 17.09 57.1938 16.74 58.5138 16.74C59.6138 16.74 60.5638 16.97 61.3638 17.43C61.5971 17.5583 61.8141 17.701 62.0151 17.8582C62.3957 18.1559 63.1938 17.8983 63.1938 17.4151C63.1938 17.1582 63.4021 16.95 63.659 16.95H68.8238C69.3761 16.95 69.8238 17.3977 69.8238 17.95V32.87C69.8238 33.4223 69.3761 33.87 68.8238 33.87H63.659C63.4021 33.87 63.1938 33.6618 63.1938 33.4049C63.1938 32.9217 62.3996 32.6668 62.0235 32.9701C61.8202 33.1341 61.6003 33.284 61.3638 33.42C60.5638 33.86 59.6138 34.08 58.5138 34.08C57.1938 34.08 56.0038 33.74 54.9438 33.06C53.8838 32.36 53.0438 31.36 52.4238 30.06C51.8238 28.74 51.5238 27.19 51.5238 25.41ZM63.1938 25.41C63.1938 24.51 62.9638 23.81 62.5038 23.31C62.0438 22.81 61.4538 22.56 60.7338 22.56C60.0138 22.56 59.4238 22.81 58.9638 23.31C58.5038 23.81 58.2738 24.51 58.2738 25.41C58.2738 26.31 58.5038 27.01 58.9638 27.51C59.4238 28.01 60.0138 28.26 60.7338 28.26C61.4538 28.26 62.0438 28.01 62.5038 27.51C62.9638 27.01 63.1938 26.31 63.1938 25.41Z" fill="#F9BF3B"/>
<path d="M86.1877 33.87C85.8544 33.87 85.543 33.704 85.3573 33.4272L81.3048 27.3878C80.7544 26.5675 79.4745 26.9571 79.4745 27.945V32.87C79.4745 33.4223 79.0267 33.87 78.4745 33.87H73.8145C73.2622 33.87 72.8145 33.4223 72.8145 32.87V13.63C72.8145 13.0777 73.2622 12.63 73.8145 12.63H78.4745C79.0267 12.63 79.4745 13.0777 79.4745 13.63V18.3258C79.4745 19.31 80.7468 19.7022 81.3009 18.8888L85.2668 13.067C85.453 12.7936 85.7624 12.63 86.0932 12.63H91.1426C91.9576 12.63 92.4303 13.5527 91.9542 14.2142L86.1905 22.222C85.9415 22.568 85.9391 23.0337 86.1846 23.3822L92.464 32.294C92.9308 32.9565 92.457 33.87 91.6465 33.87H86.1877Z" fill="#F9BF3B"/>
<path d="M94.5609 25.41C94.5609 23.63 94.8609 22.09 95.4609 20.79C96.0809 19.47 96.9209 18.47 97.9809 17.79C99.0409 17.09 100.231 16.74 101.551 16.74C102.651 16.74 103.601 16.97 104.401 17.43C104.634 17.5583 104.851 17.701 105.052 17.8582C105.433 18.1559 106.231 17.8983 106.231 17.4151C106.231 17.1582 106.439 16.95 106.696 16.95H111.861C112.413 16.95 112.861 17.3977 112.861 17.95V32.87C112.861 33.4223 112.413 33.87 111.861 33.87H106.696C106.439 33.87 106.231 33.6618 106.231 33.4049C106.231 32.9217 105.437 32.6668 105.061 32.9701C104.857 33.1341 104.637 33.284 104.401 33.42C103.601 33.86 102.651 34.08 101.551 34.08C100.231 34.08 99.0409 33.74 97.9809 33.06C96.9209 32.36 96.0809 31.36 95.4609 30.06C94.8609 28.74 94.5609 27.19 94.5609 25.41ZM106.231 25.41C106.231 24.51 106.001 23.81 105.541 23.31C105.081 22.81 104.491 22.56 103.771 22.56C103.051 22.56 102.461 22.81 102.001 23.31C101.541 23.81 101.311 24.51 101.311 25.41C101.311 26.31 101.541 27.01 102.001 27.51C102.461 28.01 103.051 28.26 103.771 28.26C104.491 28.26 105.081 28.01 105.541 27.51C106.001 27.01 106.231 26.31 106.231 25.41Z" fill="#F9BF3B"/>
<path d="M123.382 34.08C121.782 34.08 120.362 33.82 119.122 33.3C117.902 32.78 116.932 32.06 116.212 31.14C115.721 30.513 115.374 29.8302 115.171 29.0918C115.016 28.5265 115.485 28.02 116.071 28.02H120.519C121.01 28.02 121.388 28.4099 121.676 28.8082C121.767 28.9334 121.875 29.0407 122.002 29.13C122.362 29.37 122.812 29.49 123.352 29.49C123.692 29.49 123.962 29.42 124.162 29.28C124.362 29.12 124.462 28.93 124.462 28.71C124.462 28.33 124.252 28.06 123.832 27.9C123.412 27.74 122.702 27.56 121.702 27.36C120.482 27.12 119.472 26.86 118.672 26.58C117.892 26.3 117.202 25.82 116.602 25.14C116.022 24.46 115.732 23.52 115.732 22.32C115.732 21.28 116.002 20.34 116.542 19.5C117.102 18.64 117.922 17.97 119.002 17.49C120.082 16.99 121.392 16.74 122.932 16.74C125.212 16.74 126.992 17.3 128.272 18.42C129.288 19.296 129.987 20.3801 130.368 21.6722C130.54 22.2566 130.066 22.8 129.457 22.8H125.508C125.037 22.8 124.664 22.4441 124.385 22.0655C124.296 21.945 124.191 21.8398 124.072 21.75C123.752 21.49 123.322 21.36 122.782 21.36C122.442 21.36 122.182 21.43 122.002 21.57C121.822 21.69 121.732 21.88 121.732 22.14C121.732 22.48 121.942 22.74 122.362 22.92C122.782 23.08 123.452 23.25 124.372 23.43C125.592 23.67 126.622 23.94 127.462 24.24C128.302 24.54 129.032 25.06 129.652 25.8C130.272 26.52 130.582 27.52 130.582 28.8C130.582 29.8 130.292 30.7 129.712 31.5C129.132 32.3 128.292 32.93 127.192 33.39C126.112 33.85 124.842 34.08 123.382 34.08Z" fill="#F9BF3B"/>
<path d="M136.585 15.6C135.425 15.6 134.495 15.29 133.795 14.67C133.095 14.05 132.745 13.27 132.745 12.33C132.745 11.37 133.095 10.58 133.795 9.96C134.495 9.32 135.425 9 136.585 9C137.725 9 138.645 9.32 139.345 9.96C140.045 10.58 140.395 11.37 140.395 12.33C140.395 13.27 140.045 14.05 139.345 14.67C138.645 15.29 137.725 15.6 136.585 15.6ZM138.885 16.95C139.437 16.95 139.885 17.3977 139.885 17.95V32.87C139.885 33.4223 139.437 33.87 138.885 33.87H134.225C133.672 33.87 133.225 33.4223 133.225 32.87V17.95C133.225 17.3977 133.672 16.95 134.225 16.95H138.885Z" fill="#F9BF3B"/>
<path d="M154.743 16.83C156.683 16.83 158.193 17.48 159.273 18.78C160.373 20.08 160.923 21.84 160.923 24.06V32.87C160.923 33.4223 160.475 33.87 159.923 33.87H155.293C154.74 33.87 154.293 33.4223 154.293 32.87V24.9C154.293 24.1 154.073 23.47 153.633 23.01C153.213 22.53 152.643 22.29 151.923 22.29C151.183 22.29 150.603 22.53 150.183 23.01C149.763 23.47 149.553 24.1 149.553 24.9V32.87C149.553 33.4223 149.105 33.87 148.553 33.87H143.893C143.34 33.87 142.893 33.4223 142.893 32.87V17.95C142.893 17.3977 143.34 16.95 143.893 16.95H148.963C149.288 16.95 149.553 17.2141 149.553 17.5399C149.553 18.1272 150.43 18.4325 150.893 18.0716C151.121 17.8942 151.364 17.7303 151.623 17.58C152.503 17.08 153.543 16.83 154.743 16.83Z" fill="#F9BF3B"/>
<path d="M171.851 34.08C170.151 34.08 168.621 33.73 167.261 33.03C165.901 32.33 164.831 31.33 164.051 30.03C163.291 28.71 162.911 27.17 162.911 25.41C162.911 23.65 163.291 22.12 164.051 20.82C164.831 19.5 165.901 18.49 167.261 17.79C168.621 17.09 170.151 16.74 171.851 16.74C173.551 16.74 175.081 17.09 176.441 17.79C177.801 18.49 178.861 19.5 179.621 20.82C180.401 22.12 180.791 23.65 180.791 25.41C180.791 27.17 180.401 28.71 179.621 30.03C178.861 31.33 177.801 32.33 176.441 33.03C175.081 33.73 173.551 34.08 171.851 34.08ZM171.851 28.32C172.471 28.32 172.991 28.08 173.411 27.6C173.831 27.1 174.041 26.37 174.041 25.41C174.041 24.45 173.831 23.73 173.411 23.25C172.991 22.75 172.471 22.5 171.851 22.5C171.231 22.5 170.711 22.75 170.291 23.25C169.871 23.73 169.661 24.45 169.661 25.41C169.661 26.37 169.861 27.1 170.261 27.6C170.681 28.08 171.211 28.32 171.851 28.32Z" fill="#F9BF3B"/>
<path d="M192.413 28.2C192.965 28.2 193.413 28.6477 193.413 29.2V32.87C193.413 33.4223 192.965 33.87 192.413 33.87H190.893C186.253 33.87 183.933 31.56 183.933 26.94V23.5C183.933 22.9477 183.485 22.5 182.933 22.5H182.833C182.281 22.5 181.833 22.0523 181.833 21.5V17.95C181.833 17.3977 182.281 16.95 182.833 16.95H182.933C183.485 16.95 183.933 16.5023 183.933 15.95V13.87C183.933 13.3177 184.381 12.87 184.933 12.87H189.593C190.145 12.87 190.593 13.3177 190.593 13.87V15.95C190.593 16.5023 191.041 16.95 191.593 16.95H192.353C192.905 16.95 193.353 17.3977 193.353 17.95V21.5C193.353 22.0523 192.905 22.5 192.353 22.5H191.593C191.041 22.5 190.593 22.9477 190.593 23.5V27.06C190.593 27.46 190.683 27.75 190.863 27.93C191.063 28.11 191.383 28.2 191.823 28.2H192.413Z" fill="#F9BF3B"/>
<path d="M205.479 28.2C206.032 28.2 206.479 28.6477 206.479 29.2V32.87C206.479 33.4223 206.032 33.87 205.479 33.87H203.959C199.319 33.87 196.999 31.56 196.999 26.94V23.5C196.999 22.9477 196.552 22.5 195.999 22.5H195.899C195.347 22.5 194.899 22.0523 194.899 21.5V17.95C194.899 17.3977 195.347 16.95 195.899 16.95H195.999C196.552 16.95 196.999 16.5023 196.999 15.95V13.87C196.999 13.3177 197.447 12.87 197.999 12.87H202.659C203.212 12.87 203.659 13.3177 203.659 13.87V15.95C203.659 16.5023 204.107 16.95 204.659 16.95H205.419C205.972 16.95 206.419 17.3977 206.419 17.95V21.5C206.419 22.0523 205.972 22.5 205.419 22.5H204.659C204.107 22.5 203.659 22.9477 203.659 23.5V27.06C203.659 27.46 203.749 27.75 203.929 27.93C204.129 28.11 204.449 28.2 204.889 28.2H205.479Z" fill="#F9BF3B"/>
<path d="M212.376 15.6C211.216 15.6 210.286 15.29 209.586 14.67C208.886 14.05 208.536 13.27 208.536 12.33C208.536 11.37 208.886 10.58 209.586 9.96C210.286 9.32 211.216 9 212.376 9C213.516 9 214.436 9.32 215.136 9.96C215.836 10.58 216.186 11.37 216.186 12.33C216.186 13.27 215.836 14.05 215.136 14.67C214.436 15.29 213.516 15.6 212.376 15.6ZM214.676 16.95C215.228 16.95 215.676 17.3977 215.676 17.95V32.87C215.676 33.4223 215.228 33.87 214.676 33.87H210.016C209.463 33.87 209.016 33.4223 209.016 32.87V17.95C209.016 17.3977 209.463 16.95 210.016 16.95H214.676Z" fill="#F9BF3B"/>
<path d="M20.37 19.92C20.37 21.26 20.06 22.48 19.44 23.58C18.82 24.66 17.9 25.52 16.68 26.16C15.48 26.8 14.02 27.12 12.3 27.12H10.66C10.1077 27.12 9.66 27.5677 9.66 28.12V32.87C9.66 33.4223 9.21229 33.87 8.66 33.87H4C3.44771 33.87 3 33.4223 3 32.87V13.63C3 13.0777 3.44772 12.63 4 12.63H12.3C14.9 12.63 16.89 13.29 18.27 14.61C19.67 15.93 20.37 17.7 20.37 19.92ZM11.55 21.87C12.93 21.87 13.62 21.22 13.62 19.92C13.62 18.62 12.93 17.97 11.55 17.97H10.66C10.1077 17.97 9.66 18.4177 9.66 18.97V20.87C9.66 21.4223 10.1077 21.87 10.66 21.87H11.55Z" stroke="#37393D" stroke-width="4.2" stroke-linejoin="round" mask="url(#path-2-outside-1_32_62)"/>
<path d="M25.8424 15.6C24.6824 15.6 23.7524 15.29 23.0524 14.67C22.3524 14.05 22.0024 13.27 22.0024 12.33C22.0024 11.37 22.3524 10.58 23.0524 9.96C23.7524 9.32 24.6824 9 25.8424 9C26.9824 9 27.9024 9.32 28.6024 9.96C29.3024 10.58 29.6524 11.37 29.6524 12.33C29.6524 13.27 29.3024 14.05 28.6024 14.67C27.9024 15.29 26.9824 15.6 25.8424 15.6ZM28.1424 16.95C28.6947 16.95 29.1424 17.3977 29.1424 17.95V32.87C29.1424 33.4223 28.6947 33.87 28.1424 33.87H23.4824C22.9301 33.87 22.4824 33.4223 22.4824 32.87V17.95C22.4824 17.3977 22.9301 16.95 23.4824 16.95H28.1424Z" stroke="#37393D" stroke-width="4.2" stroke-linejoin="round" mask="url(#path-2-outside-1_32_62)"/>
<path d="M43.5381 33.87C43.1914 33.87 42.8695 33.6905 42.6873 33.3956L40.6611 30.1158C40.1317 29.2588 38.8104 29.634 38.8104 30.6414V32.87C38.8104 33.4223 38.3627 33.87 37.8104 33.87H33.1504C32.5981 33.87 32.1504 33.4223 32.1504 32.87V12.67C32.1504 12.1177 32.5981 11.67 33.1504 11.67H37.8104C38.3627 11.67 38.8104 12.1177 38.8104 12.67V19.9837C38.8104 20.9726 40.0924 21.3615 40.6418 20.5393L42.7434 17.3944C42.929 17.1167 43.2409 16.95 43.5749 16.95H48.7916C49.6136 16.95 50.0845 17.8866 49.5944 18.5464L44.9019 24.8623C44.6348 25.2217 44.6393 25.7149 44.9128 26.0695L49.6878 32.2592C50.1949 32.9166 49.7263 33.87 48.896 33.87H43.5381Z" stroke="#37393D" stroke-width="4.2" stroke-linejoin="round" mask="url(#path-2-outside-1_32_62)"/>
<path d="M51.5238 25.41C51.5238 23.63 51.8238 22.09 52.4238 20.79C53.0438 19.47 53.8838 18.47 54.9438 17.79C56.0038 17.09 57.1938 16.74 58.5138 16.74C59.6138 16.74 60.5638 16.97 61.3638 17.43C61.5971 17.5583 61.8141 17.701 62.0151 17.8582C62.3957 18.1559 63.1938 17.8983 63.1938 17.4151C63.1938 17.1582 63.4021 16.95 63.659 16.95H68.8238C69.3761 16.95 69.8238 17.3977 69.8238 17.95V32.87C69.8238 33.4223 69.3761 33.87 68.8238 33.87H63.659C63.4021 33.87 63.1938 33.6618 63.1938 33.4049C63.1938 32.9217 62.3996 32.6668 62.0235 32.9701C61.8202 33.1341 61.6003 33.284 61.3638 33.42C60.5638 33.86 59.6138 34.08 58.5138 34.08C57.1938 34.08 56.0038 33.74 54.9438 33.06C53.8838 32.36 53.0438 31.36 52.4238 30.06C51.8238 28.74 51.5238 27.19 51.5238 25.41ZM63.1938 25.41C63.1938 24.51 62.9638 23.81 62.5038 23.31C62.0438 22.81 61.4538 22.56 60.7338 22.56C60.0138 22.56 59.4238 22.81 58.9638 23.31C58.5038 23.81 58.2738 24.51 58.2738 25.41C58.2738 26.31 58.5038 27.01 58.9638 27.51C59.4238 28.01 60.0138 28.26 60.7338 28.26C61.4538 28.26 62.0438 28.01 62.5038 27.51C62.9638 27.01 63.1938 26.31 63.1938 25.41Z" stroke="#37393D" stroke-width="4.2" stroke-linejoin="round" mask="url(#path-2-outside-1_32_62)"/>
<path d="M86.1877 33.87C85.8544 33.87 85.543 33.704 85.3573 33.4272L81.3048 27.3878C80.7544 26.5675 79.4745 26.9571 79.4745 27.945V32.87C79.4745 33.4223 79.0267 33.87 78.4745 33.87H73.8145C73.2622 33.87 72.8145 33.4223 72.8145 32.87V13.63C72.8145 13.0777 73.2622 12.63 73.8145 12.63H78.4745C79.0267 12.63 79.4745 13.0777 79.4745 13.63V18.3258C79.4745 19.31 80.7468 19.7022 81.3009 18.8888L85.2668 13.067C85.453 12.7936 85.7624 12.63 86.0932 12.63H91.1426C91.9576 12.63 92.4303 13.5527 91.9542 14.2142L86.1905 22.222C85.9415 22.568 85.9391 23.0337 86.1846 23.3822L92.464 32.294C92.9308 32.9565 92.457 33.87 91.6465 33.87H86.1877Z" stroke="#37393D" stroke-width="4.2" stroke-linejoin="round" mask="url(#path-2-outside-1_32_62)"/>
<path d="M94.5609 25.41C94.5609 23.63 94.8609 22.09 95.4609 20.79C96.0809 19.47 96.9209 18.47 97.9809 17.79C99.0409 17.09 100.231 16.74 101.551 16.74C102.651 16.74 103.601 16.97 104.401 17.43C104.634 17.5583 104.851 17.701 105.052 17.8582C105.433 18.1559 106.231 17.8983 106.231 17.4151C106.231 17.1582 106.439 16.95 106.696 16.95H111.861C112.413 16.95 112.861 17.3977 112.861 17.95V32.87C112.861 33.4223 112.413 33.87 111.861 33.87H106.696C106.439 33.87 106.231 33.6618 106.231 33.4049C106.231 32.9217 105.437 32.6668 105.061 32.9701C104.857 33.1341 104.637 33.284 104.401 33.42C103.601 33.86 102.651 34.08 101.551 34.08C100.231 34.08 99.0409 33.74 97.9809 33.06C96.9209 32.36 96.0809 31.36 95.4609 30.06C94.8609 28.74 94.5609 27.19 94.5609 25.41ZM106.231 25.41C106.231 24.51 106.001 23.81 105.541 23.31C105.081 22.81 104.491 22.56 103.771 22.56C103.051 22.56 102.461 22.81 102.001 23.31C101.541 23.81 101.311 24.51 101.311 25.41C101.311 26.31 101.541 27.01 102.001 27.51C102.461 28.01 103.051 28.26 103.771 28.26C104.491 28.26 105.081 28.01 105.541 27.51C106.001 27.01 106.231 26.31 106.231 25.41Z" stroke="#37393D" stroke-width="4.2" stroke-linejoin="round" mask="url(#path-2-outside-1_32_62)"/>
<path d="M123.382 34.08C121.782 34.08 120.362 33.82 119.122 33.3C117.902 32.78 116.932 32.06 116.212 31.14C115.721 30.513 115.374 29.8302 115.171 29.0918C115.016 28.5265 115.485 28.02 116.071 28.02H120.519C121.01 28.02 121.388 28.4099 121.676 28.8082C121.767 28.9334 121.875 29.0407 122.002 29.13C122.362 29.37 122.812 29.49 123.352 29.49C123.692 29.49 123.962 29.42 124.162 29.28C124.362 29.12 124.462 28.93 124.462 28.71C124.462 28.33 124.252 28.06 123.832 27.9C123.412 27.74 122.702 27.56 121.702 27.36C120.482 27.12 119.472 26.86 118.672 26.58C117.892 26.3 117.202 25.82 116.602 25.14C116.022 24.46 115.732 23.52 115.732 22.32C115.732 21.28 116.002 20.34 116.542 19.5C117.102 18.64 117.922 17.97 119.002 17.49C120.082 16.99 121.392 16.74 122.932 16.74C125.212 16.74 126.992 17.3 128.272 18.42C129.288 19.296 129.987 20.3801 130.368 21.6722C130.54 22.2566 130.066 22.8 129.457 22.8H125.508C125.037 22.8 124.664 22.4441 124.385 22.0655C124.296 21.945 124.191 21.8398 124.072 21.75C123.752 21.49 123.322 21.36 122.782 21.36C122.442 21.36 122.182 21.43 122.002 21.57C121.822 21.69 121.732 21.88 121.732 22.14C121.732 22.48 121.942 22.74 122.362 22.92C122.782 23.08 123.452 23.25 124.372 23.43C125.592 23.67 126.622 23.94 127.462 24.24C128.302 24.54 129.032 25.06 129.652 25.8C130.272 26.52 130.582 27.52 130.582 28.8C130.582 29.8 130.292 30.7 129.712 31.5C129.132 32.3 128.292 32.93 127.192 33.39C126.112 33.85 124.842 34.08 123.382 34.08Z" stroke="#37393D" stroke-width="4.2" stroke-linejoin="round" mask="url(#path-2-outside-1_32_62)"/>
<path d="M136.585 15.6C135.425 15.6 134.495 15.29 133.795 14.67C133.095 14.05 132.745 13.27 132.745 12.33C132.745 11.37 133.095 10.58 133.795 9.96C134.495 9.32 135.425 9 136.585 9C137.725 9 138.645 9.32 139.345 9.96C140.045 10.58 140.395 11.37 140.395 12.33C140.395 13.27 140.045 14.05 139.345 14.67C138.645 15.29 137.725 15.6 136.585 15.6ZM138.885 16.95C139.437 16.95 139.885 17.3977 139.885 17.95V32.87C139.885 33.4223 139.437 33.87 138.885 33.87H134.225C133.672 33.87 133.225 33.4223 133.225 32.87V17.95C133.225 17.3977 133.672 16.95 134.225 16.95H138.885Z" stroke="#37393D" stroke-width="4.2" stroke-linejoin="round" mask="url(#path-2-outside-1_32_62)"/>
<path d="M154.743 16.83C156.683 16.83 158.193 17.48 159.273 18.78C160.373 20.08 160.923 21.84 160.923 24.06V32.87C160.923 33.4223 160.475 33.87 159.923 33.87H155.293C154.74 33.87 154.293 33.4223 154.293 32.87V24.9C154.293 24.1 154.073 23.47 153.633 23.01C153.213 22.53 152.643 22.29 151.923 22.29C151.183 22.29 150.603 22.53 150.183 23.01C149.763 23.47 149.553 24.1 149.553 24.9V32.87C149.553 33.4223 149.105 33.87 148.553 33.87H143.893C143.34 33.87 142.893 33.4223 142.893 32.87V17.95C142.893 17.3977 143.34 16.95 143.893 16.95H148.963C149.288 16.95 149.553 17.2141 149.553 17.5399C149.553 18.1272 150.43 18.4325 150.893 18.0716C151.121 17.8942 151.364 17.7303 151.623 17.58C152.503 17.08 153.543 16.83 154.743 16.83Z" stroke="#37393D" stroke-width="4.2" stroke-linejoin="round" mask="url(#path-2-outside-1_32_62)"/>
<path d="M171.851 34.08C170.151 34.08 168.621 33.73 167.261 33.03C165.901 32.33 164.831 31.33 164.051 30.03C163.291 28.71 162.911 27.17 162.911 25.41C162.911 23.65 163.291 22.12 164.051 20.82C164.831 19.5 165.901 18.49 167.261 17.79C168.621 17.09 170.151 16.74 171.851 16.74C173.551 16.74 175.081 17.09 176.441 17.79C177.801 18.49 178.861 19.5 179.621 20.82C180.401 22.12 180.791 23.65 180.791 25.41C180.791 27.17 180.401 28.71 179.621 30.03C178.861 31.33 177.801 32.33 176.441 33.03C175.081 33.73 173.551 34.08 171.851 34.08ZM171.851 28.32C172.471 28.32 172.991 28.08 173.411 27.6C173.831 27.1 174.041 26.37 174.041 25.41C174.041 24.45 173.831 23.73 173.411 23.25C172.991 22.75 172.471 22.5 171.851 22.5C171.231 22.5 170.711 22.75 170.291 23.25C169.871 23.73 169.661 24.45 169.661 25.41C169.661 26.37 169.861 27.1 170.261 27.6C170.681 28.08 171.211 28.32 171.851 28.32Z" stroke="#37393D" stroke-width="4.2" stroke-linejoin="round" mask="url(#path-2-outside-1_32_62)"/>
<path d="M192.413 28.2C192.965 28.2 193.413 28.6477 193.413 29.2V32.87C193.413 33.4223 192.965 33.87 192.413 33.87H190.893C186.253 33.87 183.933 31.56 183.933 26.94V23.5C183.933 22.9477 183.485 22.5 182.933 22.5H182.833C182.281 22.5 181.833 22.0523 181.833 21.5V17.95C181.833 17.3977 182.281 16.95 182.833 16.95H182.933C183.485 16.95 183.933 16.5023 183.933 15.95V13.87C183.933 13.3177 184.381 12.87 184.933 12.87H189.593C190.145 12.87 190.593 13.3177 190.593 13.87V15.95C190.593 16.5023 191.041 16.95 191.593 16.95H192.353C192.905 16.95 193.353 17.3977 193.353 17.95V21.5C193.353 22.0523 192.905 22.5 192.353 22.5H191.593C191.041 22.5 190.593 22.9477 190.593 23.5V27.06C190.593 27.46 190.683 27.75 190.863 27.93C191.063 28.11 191.383 28.2 191.823 28.2H192.413Z" stroke="#37393D" stroke-width="4.2" stroke-linejoin="round" mask="url(#path-2-outside-1_32_62)"/>
<path d="M205.479 28.2C206.032 28.2 206.479 28.6477 206.479 29.2V32.87C206.479 33.4223 206.032 33.87 205.479 33.87H203.959C199.319 33.87 196.999 31.56 196.999 26.94V23.5C196.999 22.9477 196.552 22.5 195.999 22.5H195.899C195.347 22.5 194.899 22.0523 194.899 21.5V17.95C194.899 17.3977 195.347 16.95 195.899 16.95H195.999C196.552 16.95 196.999 16.5023 196.999 15.95V13.87C196.999 13.3177 197.447 12.87 197.999 12.87H202.659C203.212 12.87 203.659 13.3177 203.659 13.87V15.95C203.659 16.5023 204.107 16.95 204.659 16.95H205.419C205.972 16.95 206.419 17.3977 206.419 17.95V21.5C206.419 22.0523 205.972 22.5 205.419 22.5H204.659C204.107 22.5 203.659 22.9477 203.659 23.5V27.06C203.659 27.46 203.749 27.75 203.929 27.93C204.129 28.11 204.449 28.2 204.889 28.2H205.479Z" stroke="#37393D" stroke-width="4.2" stroke-linejoin="round" mask="url(#path-2-outside-1_32_62)"/>
<path d="M212.376 15.6C211.216 15.6 210.286 15.29 209.586 14.67C208.886 14.05 208.536 13.27 208.536 12.33C208.536 11.37 208.886 10.58 209.586 9.96C210.286 9.32 211.216 9 212.376 9C213.516 9 214.436 9.32 215.136 9.96C215.836 10.58 216.186 11.37 216.186 12.33C216.186 13.27 215.836 14.05 215.136 14.67C214.436 15.29 213.516 15.6 212.376 15.6ZM214.676 16.95C215.228 16.95 215.676 17.3977 215.676 17.95V32.87C215.676 33.4223 215.228 33.87 214.676 33.87H210.016C209.463 33.87 209.016 33.4223 209.016 32.87V17.95C209.016 17.3977 209.463 16.95 210.016 16.95H214.676Z" stroke="#37393D" stroke-width="4.2" stroke-linejoin="round" mask="url(#path-2-outside-1_32_62)"/>
</g>
<defs>
<filter id="filter0_d_32_62" x="0.899902" y="6.89999" width="219.386" height="31.28" filterUnits="userSpaceOnUse" color-interpolation-filters="sRGB">
<feFlood flood-opacity="0" result="BackgroundImageFix"/>
<feColorMatrix in="SourceAlpha" type="matrix" values="0 0 0 0 0 0 0 0 0 0 0 0 0 0 0 0 0 0 127 0" result="hardAlpha"/>
<feOffset dx="2" dy="2"/>
<feComposite in2="hardAlpha" operator="out"/>
<feColorMatrix type="matrix" values="0 0 0 0 0.215686 0 0 0 0 0.223529 0 0 0 0 0.239216 0 0 0 1 0"/>
<feBlend mode="normal" in2="BackgroundImageFix" result="effect1_dropShadow_32_62"/>
<feBlend mode="normal" in="SourceGraphic" in2="effect1_dropShadow_32_62" result="shape"/>
</filter>
</defs>
</svg>
