<svg width="301" height="150" viewBox="0 0 301 150" fill="none" xmlns="http://www.w3.org/2000/svg">
<rect width="301" height="150" rx="20" fill="#DCF6FD"/>
<path d="M78.9241 129.22C77.5308 129.22 76.3354 128.993 75.3381 128.538C74.3554 128.083 73.5854 127.416 73.0281 126.536C72.4854 125.656 72.1848 124.563 72.1261 123.258C72.1114 122.657 72.1041 122.011 72.1041 121.322C72.1041 120.633 72.1114 119.973 72.1261 119.342C72.1848 118.066 72.4928 116.988 73.0501 116.108C73.6074 115.213 74.3848 114.539 75.3821 114.084C76.3794 113.615 77.5601 113.38 78.9241 113.38C79.8921 113.38 80.7868 113.505 81.6081 113.754C82.4294 113.989 83.1481 114.341 83.7641 114.81C84.3801 115.265 84.8568 115.822 85.1941 116.482C85.5461 117.127 85.7294 117.861 85.7441 118.682C85.7588 118.814 85.7148 118.924 85.6121 119.012C85.5241 119.1 85.4141 119.144 85.2821 119.144H82.3121C82.1214 119.144 81.9748 119.107 81.8721 119.034C81.7694 118.946 81.6814 118.792 81.6081 118.572C81.4028 117.795 81.0654 117.267 80.5961 116.988C80.1414 116.695 79.5768 116.548 78.9021 116.548C78.0954 116.548 77.4574 116.775 76.9881 117.23C76.5188 117.67 76.2621 118.411 76.2181 119.452C76.1741 120.655 76.1741 121.887 76.2181 123.148C76.2621 124.189 76.5188 124.937 76.9881 125.392C77.4574 125.832 78.0954 126.052 78.9021 126.052C79.5768 126.052 80.1488 125.905 80.6181 125.612C81.0874 125.319 81.4174 124.791 81.6081 124.028C81.6668 123.808 81.7474 123.661 81.8501 123.588C81.9674 123.5 82.1214 123.456 82.3121 123.456H85.2821C85.4141 123.456 85.5241 123.5 85.6121 123.588C85.7148 123.676 85.7588 123.786 85.7441 123.918C85.7294 124.739 85.5461 125.48 85.1941 126.14C84.8568 126.785 84.3801 127.343 83.7641 127.812C83.1481 128.267 82.4294 128.619 81.6081 128.868C80.7868 129.103 79.8921 129.22 78.9241 129.22ZM92.3474 129.22C91.5554 129.22 90.844 129.073 90.2134 128.78C89.5974 128.472 89.106 128.061 88.7394 127.548C88.3727 127.035 88.1894 126.455 88.1894 125.81C88.1894 124.769 88.6147 123.947 89.4654 123.346C90.316 122.73 91.4454 122.312 92.8534 122.092L95.6034 121.674V121.366C95.6034 120.838 95.4934 120.435 95.2734 120.156C95.0534 119.877 94.65 119.738 94.0634 119.738C93.6527 119.738 93.3154 119.819 93.0514 119.98C92.802 120.141 92.604 120.361 92.4574 120.64C92.3254 120.831 92.142 120.926 91.9074 120.926H89.4434C89.282 120.926 89.1574 120.882 89.0694 120.794C88.9814 120.691 88.9447 120.574 88.9594 120.442C88.9594 120.178 89.0547 119.877 89.2454 119.54C89.4507 119.188 89.7587 118.843 90.1694 118.506C90.58 118.169 91.108 117.89 91.7534 117.67C92.3987 117.45 93.176 117.34 94.0854 117.34C95.0387 117.34 95.8527 117.45 96.5274 117.67C97.202 117.89 97.7447 118.198 98.1554 118.594C98.5807 118.99 98.896 119.459 99.1014 120.002C99.3067 120.53 99.4094 121.117 99.4094 121.762V128.45C99.4094 128.611 99.3507 128.743 99.2334 128.846C99.1307 128.949 99.006 129 98.8594 129H96.3074C96.146 129 96.014 128.949 95.9114 128.846C95.8087 128.743 95.7574 128.611 95.7574 128.45V127.68C95.5667 127.959 95.31 128.215 94.9874 128.45C94.6647 128.685 94.2834 128.868 93.8434 129C93.418 129.147 92.9194 129.22 92.3474 129.22ZM93.3814 126.712C93.8067 126.712 94.188 126.624 94.5254 126.448C94.8774 126.257 95.1487 125.971 95.3394 125.59C95.5447 125.194 95.6474 124.703 95.6474 124.116V123.808L93.7774 124.138C93.088 124.255 92.582 124.439 92.2594 124.688C91.9514 124.923 91.7974 125.201 91.7974 125.524C91.7974 125.773 91.8707 125.986 92.0174 126.162C92.164 126.338 92.3547 126.477 92.5894 126.58C92.824 126.668 93.088 126.712 93.3814 126.712ZM107.7 129.22C106.747 129.22 105.933 129.117 105.258 128.912C104.598 128.692 104.055 128.428 103.63 128.12C103.219 127.812 102.911 127.497 102.706 127.174C102.501 126.837 102.391 126.551 102.376 126.316C102.361 126.155 102.413 126.023 102.53 125.92C102.647 125.803 102.772 125.744 102.904 125.744H105.412C105.456 125.744 105.493 125.751 105.522 125.766C105.551 125.781 105.595 125.81 105.654 125.854C105.845 125.957 106.035 126.089 106.226 126.25C106.417 126.397 106.637 126.529 106.886 126.646C107.135 126.763 107.436 126.822 107.788 126.822C108.199 126.822 108.543 126.741 108.822 126.58C109.101 126.419 109.24 126.177 109.24 125.854C109.24 125.619 109.174 125.429 109.042 125.282C108.91 125.121 108.639 124.967 108.228 124.82C107.832 124.673 107.231 124.527 106.424 124.38C105.661 124.204 104.994 123.977 104.422 123.698C103.85 123.405 103.41 123.031 103.102 122.576C102.794 122.107 102.64 121.542 102.64 120.882C102.64 120.295 102.831 119.731 103.212 119.188C103.593 118.645 104.151 118.205 104.884 117.868C105.617 117.516 106.519 117.34 107.59 117.34C108.441 117.34 109.174 117.443 109.79 117.648C110.421 117.839 110.949 118.088 111.374 118.396C111.814 118.704 112.144 119.019 112.364 119.342C112.584 119.665 112.701 119.958 112.716 120.222C112.731 120.369 112.687 120.501 112.584 120.618C112.481 120.721 112.364 120.772 112.232 120.772H109.944C109.885 120.772 109.827 120.765 109.768 120.75C109.709 120.721 109.658 120.691 109.614 120.662C109.438 120.574 109.262 120.457 109.086 120.31C108.91 120.163 108.705 120.031 108.47 119.914C108.235 119.797 107.942 119.738 107.59 119.738C107.194 119.738 106.886 119.826 106.666 120.002C106.446 120.178 106.336 120.405 106.336 120.684C106.336 120.875 106.395 121.051 106.512 121.212C106.644 121.373 106.901 121.52 107.282 121.652C107.678 121.784 108.287 121.931 109.108 122.092C110.12 122.253 110.927 122.517 111.528 122.884C112.129 123.236 112.555 123.654 112.804 124.138C113.053 124.607 113.178 125.106 113.178 125.634C113.178 126.338 112.965 126.961 112.54 127.504C112.129 128.047 111.513 128.472 110.692 128.78C109.871 129.073 108.873 129.22 107.7 129.22ZM116.802 129C116.641 129 116.509 128.949 116.406 128.846C116.303 128.743 116.252 128.611 116.252 128.45V118.11C116.252 117.949 116.303 117.817 116.406 117.714C116.509 117.611 116.641 117.56 116.802 117.56H119.398C119.545 117.56 119.669 117.611 119.772 117.714C119.889 117.817 119.948 117.949 119.948 118.11V128.45C119.948 128.611 119.889 128.743 119.772 128.846C119.669 128.949 119.545 129 119.398 129H116.802ZM116.78 115.91C116.619 115.91 116.487 115.859 116.384 115.756C116.281 115.653 116.23 115.521 116.23 115.36V113.402C116.23 113.241 116.281 113.109 116.384 113.006C116.487 112.889 116.619 112.83 116.78 112.83H119.398C119.559 112.83 119.691 112.889 119.794 113.006C119.911 113.109 119.97 113.241 119.97 113.402V115.36C119.97 115.521 119.911 115.653 119.794 115.756C119.691 115.859 119.559 115.91 119.398 115.91H116.78ZM124.176 129C124.014 129 123.882 128.949 123.78 128.846C123.677 128.743 123.626 128.611 123.626 128.45V118.11C123.626 117.949 123.677 117.817 123.78 117.714C123.882 117.611 124.014 117.56 124.176 117.56H126.706C126.867 117.56 126.999 117.611 127.102 117.714C127.204 117.817 127.256 117.949 127.256 118.11V118.946C127.637 118.491 128.136 118.11 128.752 117.802C129.368 117.494 130.094 117.34 130.93 117.34C131.78 117.34 132.528 117.531 133.174 117.912C133.834 118.293 134.347 118.858 134.714 119.606C135.095 120.339 135.286 121.241 135.286 122.312V128.45C135.286 128.611 135.227 128.743 135.11 128.846C135.007 128.949 134.882 129 134.736 129H131.964C131.817 129 131.685 128.949 131.568 128.846C131.465 128.743 131.414 128.611 131.414 128.45V122.444C131.414 121.755 131.245 121.227 130.908 120.86C130.585 120.479 130.101 120.288 129.456 120.288C128.854 120.288 128.37 120.479 128.004 120.86C127.652 121.227 127.476 121.755 127.476 122.444V128.45C127.476 128.611 127.417 128.743 127.3 128.846C127.197 128.949 127.072 129 126.926 129H124.176ZM144.253 129.22C143.021 129.22 141.979 129.022 141.129 128.626C140.293 128.23 139.647 127.665 139.193 126.932C138.753 126.184 138.503 125.297 138.445 124.27C138.43 123.977 138.423 123.647 138.423 123.28C138.423 122.899 138.43 122.569 138.445 122.29C138.503 121.249 138.767 120.361 139.237 119.628C139.706 118.895 140.359 118.33 141.195 117.934C142.045 117.538 143.065 117.34 144.253 117.34C145.455 117.34 146.475 117.538 147.311 117.934C148.161 118.33 148.821 118.895 149.291 119.628C149.76 120.361 150.024 121.249 150.083 122.29C150.097 122.569 150.105 122.899 150.105 123.28C150.105 123.647 150.097 123.977 150.083 124.27C150.024 125.297 149.767 126.184 149.313 126.932C148.873 127.665 148.227 128.23 147.377 128.626C146.541 129.022 145.499 129.22 144.253 129.22ZM144.253 126.536C144.913 126.536 145.389 126.338 145.683 125.942C145.991 125.546 146.167 124.952 146.211 124.16C146.225 123.94 146.233 123.647 146.233 123.28C146.233 122.913 146.225 122.62 146.211 122.4C146.167 121.623 145.991 121.036 145.683 120.64C145.389 120.229 144.913 120.024 144.253 120.024C143.607 120.024 143.131 120.229 142.823 120.64C142.515 121.036 142.346 121.623 142.317 122.4C142.302 122.62 142.295 122.913 142.295 123.28C142.295 123.647 142.302 123.94 142.317 124.16C142.346 124.952 142.515 125.546 142.823 125.942C143.131 126.338 143.607 126.536 144.253 126.536ZM166.148 129.22C165.327 129.22 164.637 129.081 164.08 128.802C163.537 128.523 163.09 128.171 162.738 127.746V128.45C162.738 128.611 162.679 128.743 162.562 128.846C162.459 128.949 162.335 129 162.188 129H159.702C159.541 129 159.409 128.949 159.306 128.846C159.203 128.743 159.152 128.611 159.152 128.45V113.93C159.152 113.769 159.203 113.637 159.306 113.534C159.409 113.431 159.541 113.38 159.702 113.38H162.386C162.547 113.38 162.679 113.431 162.782 113.534C162.885 113.637 162.936 113.769 162.936 113.93V118.638C163.288 118.257 163.728 117.949 164.256 117.714C164.799 117.465 165.429 117.34 166.148 117.34C166.881 117.34 167.527 117.465 168.084 117.714C168.656 117.949 169.14 118.293 169.536 118.748C169.932 119.203 170.24 119.745 170.46 120.376C170.68 121.007 170.805 121.718 170.834 122.51C170.849 122.789 170.856 123.045 170.856 123.28C170.856 123.5 170.849 123.757 170.834 124.05C170.805 124.871 170.673 125.605 170.438 126.25C170.218 126.881 169.91 127.423 169.514 127.878C169.118 128.318 168.641 128.655 168.084 128.89C167.527 129.11 166.881 129.22 166.148 129.22ZM164.96 126.272C165.459 126.272 165.847 126.169 166.126 125.964C166.405 125.759 166.603 125.48 166.72 125.128C166.852 124.776 166.933 124.387 166.962 123.962C166.991 123.507 166.991 123.053 166.962 122.598C166.933 122.173 166.852 121.784 166.72 121.432C166.603 121.08 166.405 120.801 166.126 120.596C165.847 120.391 165.459 120.288 164.96 120.288C164.505 120.288 164.131 120.391 163.838 120.596C163.545 120.787 163.325 121.043 163.178 121.366C163.031 121.674 162.951 122.011 162.936 122.378C162.921 122.657 162.914 122.928 162.914 123.192C162.914 123.456 162.921 123.735 162.936 124.028C162.951 124.424 163.024 124.791 163.156 125.128C163.288 125.465 163.501 125.744 163.794 125.964C164.087 126.169 164.476 126.272 164.96 126.272ZM179.543 129.22C178.311 129.22 177.27 129.022 176.419 128.626C175.583 128.23 174.938 127.665 174.483 126.932C174.043 126.184 173.794 125.297 173.735 124.27C173.72 123.977 173.713 123.647 173.713 123.28C173.713 122.899 173.72 122.569 173.735 122.29C173.794 121.249 174.058 120.361 174.527 119.628C174.996 118.895 175.649 118.33 176.485 117.934C177.336 117.538 178.355 117.34 179.543 117.34C180.746 117.34 181.765 117.538 182.601 117.934C183.452 118.33 184.112 118.895 184.581 119.628C185.05 120.361 185.314 121.249 185.373 122.29C185.388 122.569 185.395 122.899 185.395 123.28C185.395 123.647 185.388 123.977 185.373 124.27C185.314 125.297 185.058 126.184 184.603 126.932C184.163 127.665 183.518 128.23 182.667 128.626C181.831 129.022 180.79 129.22 179.543 129.22ZM179.543 126.536C180.203 126.536 180.68 126.338 180.973 125.942C181.281 125.546 181.457 124.952 181.501 124.16C181.516 123.94 181.523 123.647 181.523 123.28C181.523 122.913 181.516 122.62 181.501 122.4C181.457 121.623 181.281 121.036 180.973 120.64C180.68 120.229 180.203 120.024 179.543 120.024C178.898 120.024 178.421 120.229 178.113 120.64C177.805 121.036 177.636 121.623 177.607 122.4C177.592 122.62 177.585 122.913 177.585 123.28C177.585 123.647 177.592 123.94 177.607 124.16C177.636 124.952 177.805 125.546 178.113 125.942C178.421 126.338 178.898 126.536 179.543 126.536ZM189.209 129C189.047 129 188.915 128.949 188.813 128.846C188.71 128.743 188.659 128.611 188.659 128.45V118.11C188.659 117.949 188.71 117.817 188.813 117.714C188.915 117.611 189.047 117.56 189.209 117.56H191.739C191.9 117.56 192.032 117.611 192.135 117.714C192.237 117.817 192.289 117.949 192.289 118.11V118.946C192.67 118.491 193.169 118.11 193.785 117.802C194.401 117.494 195.127 117.34 195.963 117.34C196.813 117.34 197.561 117.531 198.207 117.912C198.867 118.293 199.38 118.858 199.747 119.606C200.128 120.339 200.319 121.241 200.319 122.312V128.45C200.319 128.611 200.26 128.743 200.143 128.846C200.04 128.949 199.915 129 199.769 129H196.997C196.85 129 196.718 128.949 196.601 128.846C196.498 128.743 196.447 128.611 196.447 128.45V122.444C196.447 121.755 196.278 121.227 195.941 120.86C195.618 120.479 195.134 120.288 194.489 120.288C193.887 120.288 193.403 120.479 193.037 120.86C192.685 121.227 192.509 121.755 192.509 122.444V128.45C192.509 128.611 192.45 128.743 192.333 128.846C192.23 128.949 192.105 129 191.959 129H189.209ZM208.076 129.22C207.24 129.22 206.492 129.029 205.832 128.648C205.187 128.267 204.681 127.709 204.314 126.976C203.947 126.228 203.764 125.319 203.764 124.248V118.11C203.764 117.949 203.815 117.817 203.918 117.714C204.021 117.611 204.153 117.56 204.314 117.56H207.064C207.225 117.56 207.357 117.611 207.46 117.714C207.563 117.817 207.614 117.949 207.614 118.11V124.116C207.614 125.553 208.259 126.272 209.55 126.272C210.151 126.272 210.628 126.089 210.98 125.722C211.347 125.341 211.53 124.805 211.53 124.116V118.11C211.53 117.949 211.581 117.817 211.684 117.714C211.787 117.611 211.919 117.56 212.08 117.56H214.83C214.991 117.56 215.123 117.611 215.226 117.714C215.329 117.817 215.38 117.949 215.38 118.11V128.45C215.38 128.611 215.329 128.743 215.226 128.846C215.123 128.949 214.991 129 214.83 129H212.278C212.131 129 211.999 128.949 211.882 128.846C211.779 128.743 211.728 128.611 211.728 128.45V127.614C211.347 128.142 210.848 128.545 210.232 128.824C209.631 129.088 208.912 129.22 208.076 129.22ZM223.776 129.22C222.822 129.22 222.008 129.117 221.334 128.912C220.674 128.692 220.131 128.428 219.706 128.12C219.295 127.812 218.987 127.497 218.782 127.174C218.576 126.837 218.466 126.551 218.452 126.316C218.437 126.155 218.488 126.023 218.606 125.92C218.723 125.803 218.848 125.744 218.98 125.744H221.488C221.532 125.744 221.568 125.751 221.598 125.766C221.627 125.781 221.671 125.81 221.73 125.854C221.92 125.957 222.111 126.089 222.302 126.25C222.492 126.397 222.712 126.529 222.962 126.646C223.211 126.763 223.512 126.822 223.864 126.822C224.274 126.822 224.619 126.741 224.898 126.58C225.176 126.419 225.316 126.177 225.316 125.854C225.316 125.619 225.25 125.429 225.118 125.282C224.986 125.121 224.714 124.967 224.304 124.82C223.908 124.673 223.306 124.527 222.5 124.38C221.737 124.204 221.07 123.977 220.498 123.698C219.926 123.405 219.486 123.031 219.178 122.576C218.87 122.107 218.716 121.542 218.716 120.882C218.716 120.295 218.906 119.731 219.288 119.188C219.669 118.645 220.226 118.205 220.96 117.868C221.693 117.516 222.595 117.34 223.666 117.34C224.516 117.34 225.25 117.443 225.866 117.648C226.496 117.839 227.024 118.088 227.45 118.396C227.89 118.704 228.22 119.019 228.44 119.342C228.66 119.665 228.777 119.958 228.792 120.222C228.806 120.369 228.762 120.501 228.66 120.618C228.557 120.721 228.44 120.772 228.308 120.772H226.02C225.961 120.772 225.902 120.765 225.844 120.75C225.785 120.721 225.734 120.691 225.69 120.662C225.514 120.574 225.338 120.457 225.162 120.31C224.986 120.163 224.78 120.031 224.546 119.914C224.311 119.797 224.018 119.738 223.666 119.738C223.27 119.738 222.962 119.826 222.742 120.002C222.522 120.178 222.412 120.405 222.412 120.684C222.412 120.875 222.47 121.051 222.588 121.212C222.72 121.373 222.976 121.52 223.358 121.652C223.754 121.784 224.362 121.931 225.184 122.092C226.196 122.253 227.002 122.517 227.604 122.884C228.205 123.236 228.63 123.654 228.88 124.138C229.129 124.607 229.254 125.106 229.254 125.634C229.254 126.338 229.041 126.961 228.616 127.504C228.205 128.047 227.589 128.472 226.768 128.78C225.946 129.073 224.949 129.22 223.776 129.22Z" fill="#213C53"/>
<g clip-path="url(#clip0_32_85)">
<path d="M133.836 15.2914C134.125 15.1045 134.838 14.7307 135.45 14.4758C136.333 14.1189 136.826 14.017 137.999 14.017C139.171 14 139.698 14.085 140.802 14.4758C141.55 14.7307 142.468 15.1385 142.841 15.3594C143.215 15.5803 143.827 15.9881 144.201 16.26C144.575 16.5488 145.339 17.2285 146.92 18.7918L147.769 18.401C148.449 18.0781 148.891 17.9932 150.063 17.9932C151.236 17.9932 151.677 18.0781 153.207 18.7918L154.226 17.7892C154.787 17.2285 155.552 16.5488 155.925 16.26C156.299 15.9881 156.911 15.5803 157.285 15.3594C157.659 15.1385 158.576 14.7307 159.324 14.4758C160.377 14.102 160.989 14 162.043 14C163.096 14 163.64 14.085 164.506 14.4248C165.118 14.6627 165.849 15.0025 166.121 15.1894C166.393 15.3594 166.936 15.8352 167.327 16.243C167.701 16.6508 168.177 17.2455 168.381 17.5683C168.568 17.8912 168.856 18.6558 169.026 19.2676C169.208 20.0039 169.27 20.7119 169.213 21.3916C169.162 21.9523 168.958 22.8189 168.415 24.1953L173.376 24.2463C177.896 24.2802 178.423 24.3142 179.154 24.6201C179.578 24.807 180.292 25.2148 180.717 25.5037C181.142 25.8095 181.753 26.4212 182.076 26.863C182.399 27.3218 182.807 28.0525 182.977 28.5283C183.249 29.2759 183.283 29.9386 183.283 33.8808C183.283 38.1118 183.266 38.4347 182.909 39.3183C182.705 39.845 182.161 40.6776 181.635 41.2554C181.142 41.7991 180.445 42.3939 179.46 42.8866L179.375 61.6629L178.831 62.7674C178.474 63.5151 177.981 64.1608 177.302 64.7725C176.741 65.2992 175.925 65.843 174.447 66.4207H125.679L124.745 66.0469C124.201 65.843 123.385 65.2992 122.825 64.7725C122.145 64.1608 121.652 63.5151 120.752 61.6629L120.667 42.8866L119.953 42.4788C119.545 42.2579 118.849 41.6632 118.407 41.1704C117.948 40.6607 117.421 39.828 117.217 39.3183C116.86 38.4347 116.844 38.1118 116.844 33.8808C116.844 29.9386 116.877 29.2759 117.149 28.5283C117.319 28.0525 117.727 27.3218 118.05 26.863C118.373 26.4212 118.985 25.8095 119.409 25.5037C119.834 25.2148 120.548 24.807 120.973 24.6201C121.703 24.3142 122.23 24.2802 131.712 24.1953L131.474 23.7365C131.355 23.4646 131.151 22.8359 131.032 22.3261C130.913 21.7994 130.862 20.9498 130.913 20.372C130.947 19.8113 131.151 18.9277 131.338 18.418C131.542 17.8912 132.051 17.0926 132.51 16.5658C132.952 16.073 133.547 15.4953 133.836 15.2914Z" fill="black"/>
<path d="M160.091 48.2223C160.482 47.8144 160.516 47.6615 160.567 45.7584L160.635 43.7363H176.709L176.658 61.1533L176.216 61.9179C175.91 62.4277 175.486 62.8355 174.109 63.6001L160.601 63.6171L160.516 51.8586L159.887 51.3148C159.275 50.8051 159.258 50.7371 159.241 49.7176C159.241 48.9869 159.309 48.664 159.445 48.664C159.564 48.664 159.853 48.4771 160.091 48.2223Z" fill="#F9BF3B"/>
<path d="M123.471 61.1533L123.42 52.4533L123.369 43.7363H139.529V63.6171L126.02 63.6001L125.187 63.1413C124.644 62.8355 124.219 62.4277 123.471 61.1533Z" fill="#F9BF3B"/>
<path d="M142.42 63.957V53.6767V43.3965H157.713V45.5205C157.713 47.5596 157.73 47.6615 158.138 48.0693C158.376 48.3072 158.681 48.4941 158.817 48.4941C158.953 48.4941 159.123 48.664 159.174 48.868C159.225 49.0888 159.242 49.6326 159.208 50.1084C159.174 50.8051 159.089 50.992 158.732 51.1619C158.494 51.2808 158.172 51.5527 158.002 51.7566C157.73 52.1134 157.696 52.6232 157.713 63.957H142.42Z" fill="#DCF6FD"/>
<path d="M120.703 28.0016C120.907 27.7977 121.315 27.5088 121.604 27.3729C122.062 27.118 124.917 27.101 150.031 27.084C177.134 27.084 177.949 27.101 178.561 27.4068C178.918 27.5768 179.377 27.9166 179.564 28.1375C179.768 28.3414 180.056 28.7832 180.209 29.0721C180.43 29.5478 180.481 30.2955 180.481 33.7959C180.481 37.891 180.481 37.9759 180.056 38.8086C179.734 39.4373 179.428 39.7771 178.017 40.5927L155.333 40.6777C142.861 40.7287 130.286 40.7287 122.113 40.5927L121.315 40.117C120.703 39.7771 120.397 39.4373 120.074 38.8086C119.649 37.9759 119.649 37.891 119.649 33.7959C119.649 30.0406 119.683 29.5648 119.972 28.9871C120.142 28.6473 120.482 28.1885 120.703 28.0016Z" fill="#F9BF3B"/>
<path d="M146.157 35.324C146.225 35.1371 146.497 34.8142 146.752 34.6103C147.007 34.3894 147.381 34.2195 147.585 34.2195C147.788 34.2195 148.281 34.4574 148.706 34.7293C149.199 35.0691 149.692 35.256 150.065 35.256C150.439 35.256 150.932 35.0691 151.425 34.7293C151.85 34.4574 152.342 34.2195 152.529 34.2195C152.716 34.2195 153.09 34.3894 153.362 34.5933C153.634 34.8142 153.906 35.1371 153.974 35.324C154.042 35.5109 154.008 35.8847 153.906 36.1566C153.804 36.4285 153.413 36.9212 153.039 37.2271C152.665 37.533 152.019 37.9068 151.595 38.0427C151.17 38.1957 150.49 38.2976 150.065 38.2976C149.641 38.2976 148.961 38.1957 148.536 38.0427C148.111 37.9068 147.466 37.533 147.092 37.2271C146.718 36.9212 146.327 36.4285 146.225 36.1566C146.123 35.8847 146.089 35.5109 146.157 35.324Z" fill="black"/>
<path d="M157.882 30.3113C158.307 29.8865 158.918 29.4447 159.241 29.3428C159.564 29.2408 160.108 29.1558 160.431 29.1389C160.753 29.1389 161.331 29.2238 161.705 29.3258C162.096 29.4447 162.708 29.8525 163.149 30.3113C163.608 30.7531 164.016 31.3648 164.135 31.7556C164.237 32.1295 164.339 32.6392 164.339 32.9111C164.339 33.166 164.135 33.5908 163.88 33.8967C163.591 34.2025 163.234 34.4234 162.979 34.4404C162.742 34.4404 162.351 34.3215 162.096 34.1685C161.807 33.9986 161.535 33.6248 161.433 33.251C161.314 32.8941 161.144 32.5033 161.042 32.3844C160.94 32.2654 160.685 32.1635 160.482 32.1804C160.261 32.1804 160.04 32.2824 159.972 32.4013C159.887 32.5033 159.768 32.8601 159.666 33.183C159.564 33.5058 159.309 33.9136 159.071 34.0836C158.833 34.2705 158.409 34.4234 158.137 34.4234C157.78 34.4234 157.491 34.2705 157.168 33.8967C156.896 33.5908 156.692 33.166 156.692 32.9111C156.692 32.6392 156.794 32.1295 156.896 31.7556C157.015 31.3648 157.423 30.7531 157.882 30.3113Z" fill="black"/>
<path d="M136.981 30.3113C137.406 29.8865 138.018 29.4447 138.341 29.3428C138.664 29.2408 139.207 29.1558 139.53 29.1389C139.853 29.1389 140.431 29.2238 140.805 29.3258C141.195 29.4447 141.807 29.8525 142.249 30.3113C142.708 30.7531 143.116 31.3648 143.235 31.7556C143.336 32.1295 143.438 32.6392 143.438 32.9111C143.438 33.166 143.235 33.5908 142.98 33.8967C142.64 34.2705 142.351 34.4234 141.994 34.4234C141.705 34.4234 141.297 34.2705 141.06 34.0836C140.822 33.9136 140.567 33.5058 140.465 33.183C140.363 32.8601 140.244 32.5033 140.176 32.4013C140.091 32.2824 139.87 32.1804 139.666 32.1804C139.445 32.1635 139.19 32.2654 139.088 32.3844C138.987 32.5033 138.817 32.8941 138.698 33.251C138.596 33.6248 138.324 33.9986 138.052 34.1685C137.78 34.3215 137.389 34.4404 137.151 34.4404C136.896 34.4234 136.54 34.2025 136.268 33.8967C135.996 33.5908 135.792 33.166 135.792 32.9111C135.792 32.6392 135.894 32.1295 135.996 31.7556C136.115 31.3648 136.523 30.7531 136.981 30.3113Z" fill="black"/>
<path d="M147.857 21.6975C148.044 21.3916 148.452 20.9838 148.758 20.7969H148.741C149.081 20.593 149.608 20.457 150.066 20.457C150.593 20.457 151.018 20.576 151.426 20.8309C151.749 21.0518 152.156 21.4936 152.309 21.8164C152.479 22.1562 152.615 22.785 152.615 24.1953H147.518V23.2098C147.518 22.5471 147.62 22.0713 147.857 21.6975Z" fill="#DCF6FD"/>
<path d="M158.647 17.5344C159.021 17.3305 159.751 17.0416 160.261 16.8717C160.771 16.7018 161.535 16.5658 161.96 16.5488C162.385 16.5488 163.133 16.6678 163.625 16.8037C164.254 16.9906 164.747 17.2965 165.342 17.8742C166.004 18.5029 166.242 18.8937 166.463 19.6924C166.667 20.3551 166.718 20.9838 166.65 21.4765C166.599 21.9014 166.344 22.666 165.596 24.1103L155.163 24.1953V23.2267C155.163 22.683 155.078 21.9523 154.993 21.6125C154.84 21.0008 154.857 20.9158 155.452 20.1682C155.809 19.7264 156.523 19.0297 157.032 18.6219C157.542 18.2141 158.273 17.7213 158.647 17.5344Z" fill="#DCF6FD"/>
<path d="M134.957 17.6873C135.365 17.3305 136.045 16.9396 136.469 16.8037C136.894 16.6848 137.574 16.5658 137.999 16.5488C138.424 16.5488 139.256 16.6848 139.868 16.8717C140.48 17.0586 141.55 17.5853 142.247 18.0441C142.943 18.5029 143.929 19.3355 144.422 19.8793C145.101 20.6269 145.288 20.9668 145.22 21.2217C145.152 21.4086 145.05 22.1562 144.881 24.1953L134.532 24.1103L134.006 23.1078C133.581 22.2582 133.496 21.9014 133.496 20.8988C133.513 20.0152 133.598 19.5055 133.853 19.0127C134.057 18.6389 134.549 18.0441 134.957 17.6873Z" fill="#DCF6FD"/>
<path d="M118.307 70.1594C118.698 69.8875 119.429 69.5137 119.887 69.3608C120.618 69.1059 121.315 69.0719 127.687 69.1399L127.993 69.5647C128.145 69.8026 128.332 70.1594 128.383 70.3633C128.451 70.6522 128.349 70.8901 127.5 71.7737H124.543C122.929 71.7737 121.332 71.8416 121.009 71.9436C120.686 72.0286 120.142 72.2664 119.819 72.4873C119.462 72.7252 119.038 73.252 118.29 74.7473V84.8576C118.29 90.7199 118.358 95.2228 118.46 95.5627C118.545 95.8855 118.8 96.4293 119.021 96.7521C119.225 97.075 119.717 97.5168 120.074 97.7207C120.754 98.1115 120.805 98.1115 128.23 98.1115C134.042 98.1115 135.758 98.1455 135.928 98.3154C136.081 98.4853 136.166 98.4853 136.336 98.3154C136.489 98.1625 141.042 98.1115 179.377 98.1115L180.056 97.7207C180.413 97.5168 180.906 97.075 181.127 96.7521C181.331 96.4293 181.586 95.8855 181.671 95.5627C181.773 95.2058 181.824 90.8049 181.756 74.1866L181.246 73.4389C180.957 73.0481 180.379 72.5213 179.207 71.8586L131.51 71.6887L131.102 71.2129C130.83 70.9071 130.728 70.6352 130.796 70.3633C130.847 70.1594 131.034 69.8026 131.493 69.1399H179.887L180.855 69.5987C181.399 69.8706 182.214 70.4313 182.656 70.8731C183.115 71.3319 183.642 71.9946 183.829 72.3684C184.033 72.7422 184.304 73.5069 184.457 74.0676C184.678 74.9342 184.729 76.4975 184.729 84.8576C184.729 92.8779 184.678 94.832 184.474 95.8175C184.321 96.4802 183.965 97.4148 183.659 97.9246C183.37 98.4343 182.69 99.165 182.18 99.5728C181.671 99.9806 180.821 100.473 180.311 100.66C179.394 100.983 178.986 101 120.754 101L119.785 100.626C119.259 100.405 118.477 99.9806 118.052 99.6748C117.61 99.3689 116.982 98.6722 116.591 98.0605C116.149 97.3808 115.809 96.5992 115.656 95.8515C115.452 94.917 115.401 92.9799 115.401 84.9766C115.401 76.9733 115.452 75.0701 115.656 74.1866C115.792 73.6088 116.064 72.8272 116.251 72.4534C116.438 72.0795 116.812 71.5188 117.084 71.2129C117.338 70.9241 117.899 70.4313 118.307 70.1594Z" fill="black"/>
<path d="M127.432 71.7722L127.993 71.1945C128.519 70.6508 128.655 70.5998 129.59 70.5998C130.541 70.5998 130.643 70.6338 131.51 71.6873L179.207 71.8572L179.971 72.282C180.379 72.5199 180.957 73.0467 181.756 74.1851L181.807 84.5673C181.824 90.8034 181.773 95.2044 181.671 95.5612C181.586 95.8841 181.331 96.4278 181.127 96.7507C180.906 97.0735 180.413 97.5153 179.377 98.1101H157.967C141.043 98.1101 136.489 98.161 136.336 98.314C136.166 98.4839 136.081 98.4839 135.928 98.314C135.758 98.144 134.042 98.1101 128.23 98.1101H128.23C120.805 98.1101 120.754 98.1101 120.074 97.7192C119.717 97.5153 119.225 97.0735 119.021 96.7507C118.8 96.4278 118.545 95.8841 118.46 95.5612C118.358 95.2214 118.29 90.7185 118.29 74.7459L118.749 73.8113C119.038 73.2506 119.462 72.7238 119.819 72.4859C120.142 72.265 120.686 72.0271 121.009 71.9422C121.332 71.8402 122.912 71.7722 127.432 71.7722Z" fill="#DCF6FD"/>
<path d="M166.716 77.3978C166.902 77.075 167.225 76.7012 167.429 76.5822C167.718 76.4293 168.857 76.3613 171.779 76.3613C174.022 76.3613 175.908 76.4293 176.146 76.5312C176.384 76.6332 176.707 76.9051 176.86 77.16C177.013 77.4318 177.132 77.8227 177.132 78.0605C177.115 78.3154 176.894 78.6723 176.061 79.4199H169.434V83.498H175.551L176.061 84.0078C176.35 84.2967 176.571 84.7045 176.571 84.9424C176.571 85.1802 176.35 85.622 175.585 86.4716L169.434 86.5566V90.4648H172.578C174.311 90.4648 175.908 90.5328 176.146 90.6347C176.384 90.7367 176.707 91.0085 176.86 91.2634C177.013 91.5353 177.132 91.9261 177.132 92.164C177.115 92.4019 176.911 92.7757 176.231 93.4384L172.017 93.4894C168.874 93.5234 167.718 93.4724 167.395 93.3025C167.157 93.1835 166.835 92.8267 166.682 92.5039C166.41 91.9601 166.376 91.2294 166.376 84.9424C166.376 78.2814 166.393 77.9416 166.716 77.3978Z" fill="black"/>
<path d="M152.614 77.2955C152.699 77.0576 153.039 76.7517 153.345 76.6158H153.328C153.787 76.4119 154.653 76.3779 162.13 76.4459L162.589 76.9217C162.928 77.2445 163.064 77.5504 163.047 77.9412C163.03 78.315 162.861 78.6209 161.96 79.4195H155.503V83.4976H161.45L161.96 84.0074C162.232 84.2792 162.47 84.6701 162.47 84.857C162.47 85.0439 162.385 85.3837 162.3 85.6216C162.198 85.8595 161.858 86.1654 161.535 86.3013C161.093 86.4882 160.261 86.5562 155.503 86.5562V90.4644L162.13 90.5493L162.589 91.0251C162.928 91.348 163.064 91.6538 163.047 92.0447C163.03 92.4185 162.861 92.7243 161.96 93.523L153.26 93.438L152.444 92.5034V85.1119C152.444 80.575 152.512 77.5504 152.614 77.2955Z" fill="black"/>
<path d="M137.37 77.042C137.54 76.8211 137.846 76.6002 138.05 76.5152C138.254 76.4472 139.528 76.3793 140.887 76.3793C142.536 76.3623 143.725 76.4472 144.456 76.6341C145.068 76.7701 145.866 77.0589 146.24 77.2798C146.614 77.5007 147.293 78.0955 147.735 78.5882C148.313 79.2339 148.636 79.7777 148.823 80.4404C148.976 80.9841 149.044 81.6638 148.993 82.0546C148.942 82.4285 148.67 83.1421 148.415 83.6519C148.126 84.2296 147.599 84.8583 147.039 85.3171C146.495 85.7759 145.781 86.1497 145.169 86.3367C144.643 86.4896 144.184 86.6255 144.167 86.6255C144.133 86.6425 145.186 87.713 146.495 89.0214C147.888 90.4148 148.925 91.5702 148.976 91.8251C149.027 92.08 148.959 92.4028 148.806 92.6407C148.653 92.8446 148.364 93.1335 148.143 93.2864C147.905 93.4564 147.599 93.5073 147.293 93.4564C147.005 93.3884 145.645 92.2159 140.123 86.8804L140.038 89.7691C139.97 92.3689 139.919 92.7087 139.613 92.9976C139.426 93.1845 139.035 93.3884 138.763 93.4564C138.356 93.5413 138.135 93.4733 137.064 92.5388V84.9773C137.064 77.8916 137.081 77.3988 137.37 77.042Z" fill="black"/>
<path d="M140.04 83.6668L140.057 81.5258L140.074 79.3848L142.062 79.4527C143.676 79.5037 144.169 79.5887 144.764 79.8945C145.155 80.0984 145.596 80.4893 145.732 80.7781C145.868 81.067 145.987 81.4578 145.987 81.6787C146.004 81.8826 145.851 82.2564 145.647 82.5283C145.461 82.7832 145.002 83.14 144.628 83.3269C144.067 83.6158 143.608 83.6668 140.04 83.6668Z" fill="#DCF6FD"/>
<path d="M123.216 77.3978C123.403 77.075 123.725 76.7012 123.929 76.5822C124.218 76.4293 125.357 76.3613 128.262 76.3613C130.522 76.3613 132.408 76.4293 132.646 76.5312C132.884 76.6332 133.207 76.9051 133.36 77.16C133.513 77.4318 133.632 77.8227 133.632 78.0605C133.615 78.3154 133.394 78.6723 132.561 79.4199H125.934V83.3281H131.882L132.476 83.9228C132.799 84.2457 133.071 84.6705 133.071 84.8574C133.071 85.0443 132.85 85.4521 132.086 86.3017L125.934 86.3867V89.4453C125.934 92.4359 125.917 92.5208 125.527 92.9626C125.221 93.3195 124.949 93.4384 124.507 93.4384C124.065 93.4384 123.776 93.3025 122.961 92.5039L122.91 85.2312C122.876 78.2135 122.876 77.9586 123.216 77.3978Z" fill="black"/>
</g>
<defs>
<clipPath id="clip0_32_85">
<rect width="87" height="87" fill="white" transform="translate(107 14)"/>
</clipPath>
</defs>
</svg>
